<svg xmlns="http://www.w3.org/2000/svg" width="174" height="40" viewBox="0 0 174 40" fill="none"><path d="M103.17 18.8636C102.942 17.2727 102.031 16.3636 100.209 16.3636C98.6152 16.3636 97.4764 17.2727 97.2487 18.8636V19.0909H103.17V18.8636ZM103.17 18.8636C102.942 17.2727 102.031 16.3636 100.209 16.3636C98.6152 16.3636 97.4764 17.2727 97.2487 18.8636V19.0909H103.17V18.8636ZM103.17 18.8636C102.942 17.2727 102.031 16.3636 100.209 16.3636C98.6152 16.3636 97.4764 17.2727 97.2487 18.8636V19.0909H103.17V18.8636ZM103.17 18.8636C102.942 17.2727 102.031 16.3636 100.209 16.3636C98.6152 16.3636 97.4764 17.2727 97.2487 18.8636V19.0909H103.17V18.8636ZM103.17 18.8636C102.942 17.2727 102.031 16.3636 100.209 16.3636C98.6152 16.3636 97.4764 17.2727 97.2487 18.8636V19.0909H103.17V18.8636ZM135.51 16.3636C133.688 16.3636 132.322 17.7273 132.322 19.7727C132.322 21.8182 133.688 23.1818 135.738 23.1818C137.56 23.1818 139.154 21.8182 139.154 19.7727C138.927 17.9545 137.56 16.3636 135.51 16.3636ZM135.51 16.3636C133.688 16.3636 132.322 17.7273 132.322 19.7727C132.322 21.8182 133.688 23.1818 135.738 23.1818C137.56 23.1818 139.154 21.8182 139.154 19.7727C138.927 17.9545 137.56 16.3636 135.51 16.3636ZM103.17 18.8636C102.942 17.2727 102.031 16.3636 100.209 16.3636C98.6152 16.3636 97.4764 17.2727 97.2487 18.8636V19.0909H103.17V18.8636ZM153.958 0H20.0419C14.5759 0 9.3377 2.27273 5.92147 5.90909C2.27749 9.54546 0 14.5455 0 20C0 31.1364 8.8822 40 20.0419 40H153.73C159.196 40 164.435 37.7273 168.079 34.0909C171.722 30.4545 174 25.4545 174 19.7727C174 9.09091 164.89 0 153.958 0ZM25.0524 25.2273H22.7749V19.7727C22.7749 17.7273 21.4084 16.3636 19.5864 16.3636C17.7644 16.3636 16.3979 17.7273 16.3979 19.7727C16.3979 21.8182 17.7644 23.1818 19.8141 23.1818H21.6361V25.2273H19.8141C16.3979 25.2273 14.1204 22.9545 14.1204 19.7727C14.1204 16.8182 16.3979 14.3182 19.5864 14.3182C22.7749 14.3182 25.0524 16.5909 25.0524 19.7727V25.2273ZM33.0236 25.4545C29.8351 25.4545 27.5576 23.1818 27.5576 20C27.5576 16.8182 29.8351 14.5455 33.2513 14.5455H35.0733V16.5909H33.2513C31.2016 16.5909 29.8351 17.9545 29.8351 20C29.8351 22.0455 31.2016 23.4091 33.0236 23.4091C34.8455 23.4091 36.212 22.0455 36.212 20V10.9091H38.4895V20C38.4895 23.6364 35.7565 25.4545 33.0236 25.4545ZM44.1832 22.9545C44.1832 26.8182 41.9058 29.3182 38.034 29.3182H37.3508V27.2727H38.034C40.5393 27.2727 41.678 25.6818 41.678 22.9545V14.7727H43.9555V22.9545H44.1832ZM57.8482 25.2273H55.5707V19.7727C55.5707 17.7273 54.2042 16.3636 52.3822 16.3636C50.5602 16.3636 49.1937 17.7273 49.1937 19.7727C49.1937 21.8182 50.5602 23.1818 52.6099 23.1818H54.4319V25.2273H52.6099C49.1937 25.2273 46.9162 22.9545 46.9162 19.7727C46.9162 16.8182 49.1937 14.3182 52.3822 14.3182C55.5707 14.3182 57.8482 16.5909 57.8482 19.7727V25.2273ZM66.2749 16.8182C65.3639 16.8182 64.4529 17.0455 63.9974 17.5C63.5419 17.9545 63.0864 18.6364 63.0864 19.7727V25.2273H60.8089V14.7727H62.8586V17.0455L63.3141 15.9091C63.7696 14.5455 65.3639 14.3182 66.2749 14.5455V16.8182ZM78.801 25.2273H76.5236V19.7727C76.5236 17.7273 75.1571 16.3636 73.3351 16.3636C71.5131 16.3636 70.1466 17.7273 70.1466 19.7727C70.1466 21.8182 71.5131 23.1818 73.5628 23.1818H75.3848V25.2273H73.5628C70.1466 25.2273 67.8691 22.9545 67.8691 19.7727C67.8691 16.8182 70.1466 14.3182 73.3351 14.3182C76.5235 14.3182 78.801 16.5909 78.801 19.7727V25.2273ZM87.2278 25.4545C84.4948 25.4545 81.7618 23.8636 81.7618 20V10.9091H84.0393V20C84.0393 22.0455 85.178 23.4091 87.2278 23.4091C89.0497 23.4091 90.4162 22.0455 90.4162 20C90.4162 17.9545 89.0497 16.5909 87 16.5909H85.178V14.5455H87C90.4162 14.5455 92.6937 16.8182 92.6937 20C92.6937 23.1818 90.4162 25.4545 87.2278 25.4545ZM105.22 20.9091H97.2487V21.1364C97.4764 22.5 98.8429 23.4091 100.665 23.4091C101.804 23.4091 102.942 23.1818 104.309 22.5V24.5455C102.715 25.2273 101.804 25.2273 100.437 25.2273C97.0209 25.2273 94.7434 22.9545 94.7434 19.5455C94.7434 16.3636 96.7932 14.0909 99.7539 14.0909C102.715 14.0909 104.764 16.1364 104.764 19.5455V20.9091H105.22ZM113.419 16.8182H111.141V21.8182C111.141 22.7273 111.597 23.1818 112.963 23.1818C113.191 23.1818 113.191 23.1818 113.191 23.1818V25.2273C112.963 25.2273 112.736 25.2273 112.28 25.2273C110.003 25.2273 108.636 24.0909 108.636 21.8182V16.5909H107.497L106.586 14.5455H108.636V11.8182H110.914V14.5455H113.191V16.8182H113.419ZM116.835 25.4545C115.924 25.4545 115.241 24.7727 115.241 23.8636C115.241 22.9545 115.924 22.2727 116.835 22.2727C117.746 22.2727 118.429 22.9545 118.429 23.8636C118.202 24.7727 117.518 25.4545 116.835 25.4545ZM127.539 25C126.628 25.4545 125.717 25.4545 124.806 25.4545C121.618 25.4545 119.34 23.1818 119.34 20C119.34 16.8182 121.618 14.5455 124.806 14.5455C125.717 14.5455 126.401 14.7727 127.312 15V17.0455C126.628 16.8182 125.945 16.5909 125.034 16.5909C122.984 16.5909 121.618 17.9545 121.618 20C121.618 22.0455 122.984 23.4091 125.034 23.4091C125.945 23.4091 126.628 23.1818 127.539 22.9545V25ZM135.51 25.4545C132.322 25.4545 129.817 23.1818 129.817 20C129.817 16.8182 132.322 14.5455 135.51 14.5455C138.699 14.5455 141.204 16.8182 141.204 20C141.204 22.9545 138.927 25.4545 135.51 25.4545ZM159.652 25.2273H157.374V18.8636C157.374 17.2727 156.236 16.3636 155.097 16.3636C153.958 16.3636 152.819 17.0455 152.819 18.8636V25.2273H150.542V18.8636C150.542 17.2727 149.403 16.3636 148.264 16.3636C147.126 16.3636 145.987 17.2727 145.987 18.8636V25.2273H143.709V14.7727H145.987V17.0455L146.442 16.1364C146.898 14.7727 148.492 14.5455 149.175 14.5455C150.77 14.5455 151.681 15 152.136 16.3636L152.364 16.8182L152.592 16.3636C153.275 15.2273 154.641 14.5455 155.78 14.5455C158.285 14.5455 159.652 16.1364 159.652 18.8636V25.2273ZM135.51 16.3636C133.688 16.3636 132.322 17.7273 132.322 19.7727C132.322 21.8182 133.688 23.1818 135.738 23.1818C137.56 23.1818 139.154 21.8182 139.154 19.7727C138.927 17.9545 137.56 16.3636 135.51 16.3636ZM100.209 16.3636C98.6152 16.3636 97.4764 17.2727 97.2487 18.8636V19.0909H103.17V18.8636C102.942 17.2727 101.804 16.3636 100.209 16.3636ZM103.17 18.8636C102.942 17.2727 102.031 16.3636 100.209 16.3636C98.6152 16.3636 97.4764 17.2727 97.2487 18.8636V19.0909H103.17V18.8636ZM103.17 18.8636C102.942 17.2727 102.031 16.3636 100.209 16.3636C98.6152 16.3636 97.4764 17.2727 97.2487 18.8636V19.0909H103.17V18.8636ZM103.17 18.8636C102.942 17.2727 102.031 16.3636 100.209 16.3636C98.6152 16.3636 97.4764 17.2727 97.2487 18.8636V19.0909H103.17V18.8636ZM103.17 18.8636C102.942 17.2727 102.031 16.3636 100.209 16.3636C98.6152 16.3636 97.4764 17.2727 97.2487 18.8636V19.0909H103.17V18.8636Z" fill="white"></path></svg>