<svg xmlns="http://www.w3.org/2000/svg" width="223" height="40" viewBox="0 0 223 40" fill="none"><path d="M19.3301 0.0385742C29.6783 0.0386211 38.0673 8.71832 38.0674 19.4253C38.0674 30.1324 29.6783 38.812 19.3301 38.812C8.98179 38.812 0.592773 30.1324 0.592773 19.4253C0.592878 8.71829 8.98186 0.0385742 19.3301 0.0385742ZM19.3301 3.98486C11.0884 3.98492 4.40734 10.8978 4.40723 19.4253C4.40723 27.9529 11.0883 34.8657 19.3301 34.8657C27.5719 34.8657 34.2529 27.9529 34.2529 19.4253C34.2528 10.8978 27.5718 3.98486 19.3301 3.98486Z" fill="white"></path><path d="M9.07237 18.7739C14.0714 18.7739 18.1447 14.5593 18.1447 9.38695C18.1447 4.21455 14.0714 0 9.07237 0C4.07331 0 0 4.21455 0 9.38695C0 14.5593 4.03628 18.7739 9.07237 18.7739Z" fill="white"></path><path d="M51.9163 14.3297C51.9163 15.2492 52.3977 16.0538 53.2864 16.6669C54.1752 17.2416 55.6564 17.7396 57.693 18.1994C60.3221 18.7358 62.2847 19.6937 63.5808 20.8814C64.8768 22.1075 65.5064 23.755 65.5064 25.7856C65.5064 27.8546 64.6917 29.6936 63.0624 31.1113C61.433 32.6055 59.2853 33.3335 56.6191 33.3335C53.8048 33.3335 51.509 32.6055 49.8426 31.1496C48.1392 29.6936 47.0283 27.7396 46.584 25.3642L50.5462 23.2952C51.2498 27.2032 53.2494 29.1572 56.5451 29.1572C57.8782 29.1572 58.9891 28.8507 59.7297 28.2377C60.5443 27.663 60.9146 26.8201 60.9146 25.8239C60.9146 24.7511 60.4332 23.9082 59.4705 23.2952C58.5077 22.7205 57.0265 22.1458 54.9898 21.7626C52.6939 21.2645 50.8795 20.4216 49.5464 19.1956C48.2133 17.9695 47.5468 16.322 47.5468 14.368C47.5468 12.3374 48.3244 10.6515 49.8797 9.4255C51.3979 8.19945 53.4716 7.58643 55.9526 7.58643C60.4703 7.58643 63.5067 9.6937 65.025 13.9082L61.5071 16.0155C60.5443 13.1037 58.6928 11.6094 55.8785 11.6094C54.7306 11.6094 53.7678 11.801 53.0272 12.2607C52.2866 12.7971 51.9163 13.4485 51.9163 14.3297ZM67.3208 40.0001V15.3259H71.6163V17.8546C72.1718 16.9734 73.0605 16.2071 74.0603 15.6707C75.0971 15.1343 76.2451 14.8278 77.43 14.8278C79.6148 14.8278 81.5033 15.6707 82.9475 17.3565C84.4287 19.0423 85.2064 21.2645 85.2064 24.0615C85.2064 26.8201 84.4287 29.0423 82.8735 30.7281C81.2812 32.4523 79.3926 33.2952 77.0968 33.2952C74.8009 33.2952 72.9864 32.4139 71.6163 30.6132V40.0001H67.3208ZM79.5408 20.46C78.652 19.4638 77.5041 18.9657 76.171 18.9657C74.8009 18.9657 73.69 19.4638 72.8013 20.46C71.9126 21.4561 71.4312 22.6439 71.4312 24.0615C71.4312 25.4791 71.9126 26.6668 72.8013 27.663C73.69 28.6592 74.8379 29.1572 76.171 29.1572C77.5411 29.1572 78.652 28.6592 79.5408 27.663C80.4295 26.6668 80.9109 25.4791 80.9109 24.0615C80.8738 22.6055 80.4295 21.4178 79.5408 20.46ZM102.018 17.2799C103.87 18.9274 104.795 21.1879 104.795 24.0615C104.795 26.935 103.907 29.1956 102.092 30.8431C100.278 32.4906 98.0928 33.2952 95.6118 33.2952C93.1308 33.2952 90.946 32.4522 89.1315 30.8431C87.3171 29.1956 86.4283 26.935 86.4283 24.0615C86.4283 21.1879 87.3171 18.9274 89.1315 17.2799C90.946 15.6324 93.1308 14.8278 95.6118 14.8278C98.0558 14.8278 100.204 15.6707 102.018 17.2799ZM92.131 27.7396C93.0938 28.6592 94.2417 29.1189 95.5748 29.1189C96.9079 29.1189 98.0558 28.6592 99.0186 27.7396C99.9814 26.8201 100.463 25.5557 100.463 24.0232C100.463 22.4906 99.9814 21.2645 99.0186 20.3067C98.0558 19.3872 96.9079 18.9274 95.5748 18.9274C94.2417 18.9274 93.0938 19.3872 92.131 20.3067C91.1682 21.2262 90.6868 22.4906 90.6868 24.0232C90.7238 25.594 91.1682 26.8201 92.131 27.7396ZM117.274 15.0577V19.1573C116.83 18.9274 115.682 19.004 115.238 19.004C113.979 19.004 112.979 19.5021 112.275 20.4983C111.572 21.4944 111.164 22.7205 111.164 24.2147V32.8737H106.869V15.3642H111.164V18.1228C112.201 15.9389 113.794 14.8661 115.904 14.8661C116.349 14.8278 116.793 14.9044 117.274 15.0577ZM119.385 15.3259V10.5749H123.681V15.3259H127.347V18.9274H123.681V26.8584C123.681 28.5059 124.384 29.3105 125.828 29.3105C126.31 29.3105 126.791 29.2722 127.273 29.1189L127.717 32.7588C126.865 33.1036 125.902 33.2569 124.866 33.2569C121.237 33.2569 119.459 31.3795 119.459 27.663V18.8891L119.385 15.3259ZM133.234 19.617C133.234 20.6898 134.567 21.5327 137.234 22.0691C139.196 22.5289 140.603 23.1419 141.529 23.9848C142.418 24.8278 142.862 26.0155 142.862 27.4331C142.862 29.1189 142.233 30.4982 141.048 31.6477C139.863 32.7204 138.233 33.2952 136.197 33.2952C134.234 33.2952 132.605 32.7971 131.346 31.8009C130.05 30.8047 129.087 29.5787 128.495 28.0461L131.938 25.7856C132.309 26.935 132.901 27.8546 133.605 28.5442C134.308 29.2339 135.234 29.5787 136.271 29.5787C136.974 29.5787 137.604 29.4254 138.122 29.0806C138.641 28.7358 138.937 28.2377 138.937 27.663C138.937 27.1266 138.641 26.6285 138.085 26.322C137.53 25.9772 136.604 25.6707 135.308 25.4408C131.383 24.6362 129.42 22.8354 129.42 19.9619C129.42 18.391 130.05 17.1649 131.272 16.2454C132.531 15.3642 133.975 14.9044 135.752 14.9044C137.567 14.9044 139.011 15.2492 140.048 15.9389C141.085 16.6285 142.011 17.778 142.714 19.3105L139.604 21.2262C138.826 19.1956 137.567 18.1611 135.789 18.1611C134.086 18.0845 133.234 18.5826 133.234 19.617ZM144.38 32.7971V8.12282H148.676V17.4715C150.009 15.709 151.861 14.7895 154.193 14.7895C156.526 14.7895 158.452 15.6324 159.97 17.2416C161.488 18.9274 162.266 21.1496 162.266 24.0232C162.266 26.8201 161.488 29.1189 159.933 30.7281C158.341 32.4139 156.452 33.2569 154.156 33.2569C151.786 33.2569 149.898 32.3756 148.676 30.5749V32.7588H144.38C144.38 32.7204 144.38 32.7971 144.38 32.7971ZM149.787 27.7396C150.676 28.6592 151.823 29.1572 153.231 29.1572C154.601 29.1572 155.749 28.6592 156.674 27.7396C157.563 26.8201 158.008 25.5557 158.008 24.0998C158.008 22.6055 157.563 21.3795 156.674 20.46C155.786 19.5404 154.638 19.0423 153.231 19.0423C151.861 19.0423 150.713 19.5404 149.787 20.46C148.898 21.3795 148.454 22.6439 148.454 24.0998C148.454 25.5174 148.861 26.7818 149.787 27.7396ZM180.522 25.1343H167.487C167.635 26.4753 168.117 27.548 168.968 28.3526C169.82 29.1572 170.894 29.5404 172.116 29.5404C174.227 29.5404 175.745 28.4676 176.782 26.322L179.966 28.2377C178.374 31.6477 175.708 33.3718 172.042 33.3718C169.672 33.3718 167.598 32.5289 165.895 30.8048C164.229 29.0806 163.377 26.8584 163.377 24.1381C163.377 21.4178 164.229 19.1956 165.969 17.4715C167.672 15.7473 169.783 14.9044 172.264 14.9044C174.634 14.9044 176.671 15.7473 178.189 17.3565C179.707 19.004 180.522 21.1113 180.522 23.64V25.1343ZM172.153 18.2377C171.042 18.2377 170.042 18.5826 169.228 19.2722C168.413 19.9619 167.857 20.8431 167.524 21.8776H176.597C176.411 20.7281 175.893 19.8086 175.115 19.1573C174.375 18.5059 173.375 18.2377 172.153 18.2377ZM181.892 15.3259V10.5749H186.187V15.3259H189.853V18.9274H186.187V26.8584C186.187 28.5059 186.891 29.3105 188.335 29.3105C188.817 29.3105 189.298 29.2722 189.779 29.1189L190.224 32.7588C189.372 33.1036 188.409 33.2569 187.372 33.2569C183.743 33.2569 181.966 31.3795 181.966 27.663V18.8891L181.892 15.3259ZM193.779 32.7971C195.038 32.7971 196.074 31.7626 196.074 30.4216C196.074 29.1189 195.075 28.0461 193.779 28.0461C192.52 28.0461 191.483 29.0806 191.483 30.4216C191.483 31.7626 192.557 32.7971 193.779 32.7971ZM197.963 32.7971V15.3259H202.258V32.7971H197.963ZM219.403 17.2799C221.255 18.9274 222.181 21.1879 222.181 24.0615C222.181 26.935 221.292 29.1956 219.477 30.8431C217.663 32.4906 215.478 33.2952 212.997 33.2952C210.516 33.2952 208.331 32.4522 206.517 30.8431C204.702 29.1956 203.814 26.935 203.814 24.0615C203.814 21.1879 204.702 18.9274 206.517 17.2799C208.331 15.6324 210.516 14.8278 212.997 14.8278C215.441 14.8278 217.552 15.6707 219.403 17.2799ZM209.479 27.7396C210.442 28.6592 211.59 29.1189 212.923 29.1189C214.256 29.1189 215.404 28.6592 216.367 27.7396C217.33 26.8201 217.811 25.5557 217.811 24.0232C217.811 22.4906 217.33 21.2645 216.367 20.3067C215.404 19.3872 214.256 18.9274 212.923 18.9274C211.59 18.9274 210.442 19.3872 209.479 20.3067C208.517 21.2262 208.035 22.4906 208.035 24.0232C208.035 25.5557 208.517 26.8201 209.479 27.7396Z" fill="white"></path><path d="M197.74 10.4599C197.74 11.8009 198.777 12.8354 200.036 12.8354C201.295 12.8354 202.332 11.8009 202.332 10.4599C202.332 9.11896 201.295 8.08447 200.036 8.08447C198.74 8.08447 197.74 9.11896 197.74 10.4599Z" fill="white"></path></svg>