<svg xmlns="http://www.w3.org/2000/svg" width="382" height="110" viewBox="0 0 382 110" fill="none"><g clip-path="url(#clip0_686_11405)"><path d="M75.5384 97.7155H76.5999V107.084H75.3686L69.58 99.1732V107.084H68.5186V97.7155H69.7499L75.5384 105.598V97.7155ZM83.1103 106.235C84.0633 106.235 84.7473 105.839 85.1625 105.046H86.323C86.0777 105.688 85.6885 106.207 85.1554 106.603C84.6223 107 83.9359 107.198 83.0961 107.198C82.0299 107.198 81.1619 106.844 80.492 106.136C79.8409 105.447 79.5154 104.584 79.5154 103.546C79.5154 102.499 79.8268 101.636 80.4495 100.956C81.11 100.249 81.9686 99.895 83.0254 99.895C84.0821 99.895 84.9407 100.249 85.6012 100.956C86.2239 101.636 86.5353 102.499 86.5353 103.546V103.971H80.6052C80.6807 104.622 80.9402 105.16 81.3836 105.584C81.8365 106.018 82.4121 106.235 83.1103 106.235ZM83.0254 100.857C82.3743 100.857 81.8271 101.06 81.3836 101.466C80.9685 101.853 80.7137 102.358 80.6194 102.98H85.4314C85.337 102.358 85.0823 101.853 84.6671 101.466C84.2237 101.06 83.6764 100.857 83.0254 100.857ZM94.6733 100.008L92.1116 103.433L94.8573 107.084H93.4986L91.503 104.197L89.4933 107.084H88.1487L90.8803 103.433L88.3186 100.008H89.6773L91.503 102.683L93.3146 100.008H94.6733ZM99.0749 107.084H98.0134V100.942H96.5698V100.008H98.0134V97.4749H99.0749V100.008H100.702V100.942H99.0749V107.084ZM108.6 99.0034C108.996 98.5694 109.477 98.2274 110.043 97.9773C110.61 97.7273 111.195 97.6023 111.798 97.6023C112.402 97.6023 112.926 97.6684 113.369 97.8004C113.813 97.9325 114.214 98.1118 114.572 98.3382C115.318 98.8194 115.865 99.461 116.214 100.263H115.054C114.771 99.7535 114.377 99.3549 113.872 99.0671C113.367 98.7793 112.794 98.6354 112.152 98.6354C111.511 98.6354 110.963 98.7321 110.51 98.9256C110.058 99.119 109.675 99.3855 109.364 99.7252C108.722 100.423 108.402 101.315 108.402 102.4C108.402 103.494 108.718 104.386 109.35 105.075C110.02 105.801 110.907 106.165 112.011 106.165C112.898 106.165 113.662 105.891 114.303 105.344C114.983 104.768 115.322 104.009 115.322 103.065H111.897V102.103H116.299V107.084H115.322V105.429C114.785 106.24 114.039 106.783 113.086 107.056C112.737 107.15 112.277 107.198 111.706 107.198C111.136 107.198 110.567 107.073 110.001 106.823C109.435 106.573 108.954 106.231 108.557 105.797C107.746 104.91 107.34 103.777 107.34 102.4C107.34 101.041 107.76 99.9092 108.6 99.0034ZM122.512 106.235C123.465 106.235 124.149 105.839 124.564 105.046H125.725C125.48 105.688 125.09 106.207 124.557 106.603C124.024 107 123.338 107.198 122.498 107.198C121.432 107.198 120.564 106.844 119.894 106.136C119.243 105.447 118.917 104.584 118.917 103.546C118.917 102.499 119.229 101.636 119.851 100.956C120.512 100.249 121.371 99.895 122.427 99.895C123.484 99.895 124.343 100.249 125.003 100.956C125.626 101.636 125.937 102.499 125.937 103.546V103.971H120.007C120.083 104.622 120.342 105.16 120.786 105.584C121.238 106.018 121.814 106.235 122.512 106.235ZM122.427 100.857C121.776 100.857 121.229 101.06 120.786 101.466C120.37 101.853 120.116 102.358 120.021 102.98H124.833C124.739 102.358 124.484 101.853 124.069 101.466C123.626 101.06 123.078 100.857 122.427 100.857ZM128.655 100.008H129.716V101.112C129.971 100.772 130.282 100.485 130.65 100.249C131.018 100.013 131.438 99.895 131.91 99.895C132.382 99.895 132.787 99.961 133.127 100.093C133.467 100.225 133.764 100.423 134.019 100.688C134.604 101.263 134.896 102.023 134.896 102.966V107.084H133.835V102.994C133.835 102.343 133.651 101.824 133.283 101.438C132.915 101.051 132.438 100.857 131.853 100.857C131.259 100.857 130.754 101.056 130.339 101.452C129.924 101.857 129.716 102.376 129.716 103.009V107.084H128.655V100.008ZM141.237 106.235C142.19 106.235 142.874 105.839 143.289 105.046H144.449C144.204 105.688 143.815 106.207 143.282 106.603C142.749 107 142.062 107.198 141.222 107.198C140.156 107.198 139.288 106.844 138.618 106.136C137.967 105.447 137.642 104.584 137.642 103.546C137.642 102.499 137.953 101.636 138.576 100.956C139.236 100.249 140.095 99.895 141.152 99.895C142.208 99.895 143.067 100.249 143.728 100.956C144.35 101.636 144.662 102.499 144.662 103.546V103.971H138.732C138.807 104.622 139.066 105.16 139.51 105.584C139.963 106.018 140.538 106.235 141.237 106.235ZM141.152 100.857C140.501 100.857 139.953 101.06 139.51 101.466C139.095 101.853 138.84 102.358 138.746 102.98H143.558C143.463 102.358 143.209 101.853 142.793 101.466C142.35 101.06 141.803 100.857 141.152 100.857ZM151.045 99.895H151.115V100.956H150.988C150.224 100.956 149.601 101.263 149.12 101.876C148.667 102.461 148.44 103.159 148.44 103.971V107.084H147.379V100.008H148.44V101.749C148.667 101.013 149.158 100.471 149.912 100.121C150.224 99.9705 150.601 99.895 151.045 99.895ZM159.013 107.084V105.952C158.447 106.783 157.602 107.198 156.479 107.198C155.46 107.198 154.63 106.844 153.988 106.136C153.366 105.438 153.054 104.575 153.054 103.546C153.054 102.518 153.366 101.655 153.988 100.956C154.63 100.249 155.484 99.895 156.55 99.895C157.616 99.895 158.437 100.315 159.013 101.155V100.008H160.074V107.084H159.013ZM156.621 106.235C157.385 106.235 157.989 105.971 158.432 105.443C158.857 104.943 159.069 104.311 159.069 103.546C159.069 102.782 158.857 102.15 158.432 101.65C157.989 101.122 157.385 100.857 156.621 100.857C155.866 100.857 155.253 101.122 154.781 101.65C154.338 102.15 154.116 102.782 154.116 103.546C154.116 104.311 154.338 104.943 154.781 105.443C155.253 105.971 155.866 106.235 156.621 106.235ZM165.155 107.084H164.094V100.942H162.65V100.008H164.094V97.4749H165.155V100.008H166.783V100.942H165.155V107.084ZM169.359 107.084V100.008H170.42V107.084H169.359ZM169.316 97.4325H170.463V98.8194H169.316V97.4325ZM176.746 99.895C177.803 99.895 178.662 100.249 179.322 100.956C179.945 101.636 180.256 102.499 180.256 103.546C180.256 104.594 179.945 105.457 179.322 106.136C178.662 106.844 177.803 107.198 176.746 107.198C175.69 107.198 174.831 106.844 174.171 106.136C173.548 105.457 173.237 104.594 173.237 103.546C173.237 102.499 173.548 101.636 174.171 100.956C174.831 100.249 175.69 99.895 176.746 99.895ZM176.746 106.235C177.511 106.235 178.115 105.971 178.558 105.443C178.983 104.943 179.195 104.311 179.195 103.546C179.195 102.782 178.983 102.15 178.558 101.65C178.115 101.122 177.511 100.857 176.746 100.857C175.982 100.857 175.378 101.122 174.935 101.65C174.51 102.15 174.298 102.782 174.298 103.546C174.298 104.311 174.51 104.943 174.935 105.443C175.378 105.971 175.982 106.235 176.746 106.235ZM183.073 100.008H184.134V101.112C184.389 100.772 184.7 100.485 185.068 100.249C185.436 100.013 185.856 99.895 186.328 99.895C186.8 99.895 187.206 99.961 187.545 100.093C187.885 100.225 188.182 100.423 188.437 100.688C189.022 101.263 189.314 102.023 189.314 102.966V107.084H188.253V102.994C188.253 102.343 188.069 101.824 187.701 101.438C187.333 101.051 186.856 100.857 186.271 100.857C185.677 100.857 185.172 101.056 184.757 101.452C184.342 101.857 184.134 102.376 184.134 103.009V107.084H183.073V100.008ZM198.231 99.152C198.051 99.3077 197.931 99.4799 197.87 99.6686C197.808 99.8573 197.778 100.058 197.778 100.27C197.778 100.482 197.87 100.678 198.054 100.857C198.238 101.037 198.481 101.188 198.783 101.31C199.085 101.433 199.429 101.541 199.816 101.636C200.203 101.73 200.597 101.827 200.998 101.926C201.399 102.025 201.793 102.138 202.179 102.266C202.566 102.393 202.911 102.556 203.213 102.754C203.882 103.178 204.217 103.759 204.217 104.495C204.217 105.372 203.89 106.042 203.234 106.504C202.578 106.967 201.67 107.198 200.509 107.198C199.198 107.198 198.198 106.924 197.509 106.377C196.896 105.886 196.546 105.188 196.462 104.282H197.565C197.603 104.924 197.915 105.414 198.5 105.754C199.009 106.047 199.684 106.193 200.523 106.193C202.278 106.193 203.156 105.641 203.156 104.537C203.156 104.16 202.998 103.862 202.682 103.645C202.366 103.428 201.969 103.249 201.493 103.108C201.016 102.966 200.502 102.834 199.95 102.711C199.398 102.589 198.884 102.431 198.408 102.237C197.931 102.044 197.535 101.789 197.219 101.473C196.903 101.157 196.745 100.73 196.745 100.192C196.745 99.428 197.037 98.8053 197.622 98.3241C198.207 97.8429 199.089 97.6023 200.269 97.6023C201.458 97.6023 202.377 97.8759 203.029 98.4231C203.623 98.9043 203.939 99.5223 203.977 100.277H202.887C202.793 99.5035 202.293 98.9892 201.387 98.7345C201.066 98.6402 200.667 98.593 200.191 98.593C199.714 98.593 199.313 98.6472 198.988 98.7557C198.662 98.8642 198.41 98.9963 198.231 99.152ZM208.109 100.008V101.14C208.676 100.31 209.52 99.895 210.643 99.895C211.662 99.895 212.487 100.249 213.12 100.956C213.752 101.655 214.068 102.518 214.068 103.546C214.068 104.575 213.752 105.438 213.12 106.136C212.487 106.844 211.638 107.198 210.572 107.198C209.506 107.198 208.685 106.778 208.109 105.938V109.887H207.048V100.008H208.109ZM210.501 100.857C209.737 100.857 209.133 101.122 208.69 101.65C208.265 102.15 208.053 102.782 208.053 103.546C208.053 104.311 208.265 104.943 208.69 105.443C209.133 105.971 209.737 106.235 210.501 106.235C211.256 106.235 211.869 105.971 212.341 105.443C212.785 104.943 213.006 104.311 213.006 103.546C213.006 102.782 212.785 102.15 212.341 101.65C211.869 101.122 211.256 100.857 210.501 100.857ZM219.941 99.895C220.998 99.895 221.857 100.249 222.517 100.956C223.14 101.636 223.451 102.499 223.451 103.546C223.451 104.594 223.14 105.457 222.517 106.136C221.857 106.844 220.998 107.198 219.941 107.198C218.885 107.198 218.026 106.844 217.366 106.136C216.743 105.457 216.431 104.594 216.431 103.546C216.431 102.499 216.743 101.636 217.366 100.956C218.026 100.249 218.885 99.895 219.941 99.895ZM219.941 106.235C220.706 106.235 221.309 105.971 221.753 105.443C222.178 104.943 222.39 104.311 222.39 103.546C222.39 102.782 222.178 102.15 221.753 101.65C221.309 101.122 220.706 100.857 219.941 100.857C219.177 100.857 218.573 101.122 218.13 101.65C217.705 102.15 217.493 102.782 217.493 103.546C217.493 104.311 217.705 104.943 218.13 105.443C218.573 105.971 219.177 106.235 219.941 106.235ZM229.933 99.895H230.004V100.956H229.877C229.112 100.956 228.49 101.263 228.009 101.876C227.556 102.461 227.329 103.159 227.329 103.971V107.084H226.268V100.008H227.329V101.749C227.556 101.013 228.046 100.471 228.801 100.121C229.112 99.9705 229.49 99.895 229.933 99.895ZM234.392 107.084H233.33V100.942H231.886V100.008H233.33V97.4749H234.392V100.008H236.019V100.942H234.392V107.084ZM243.832 101.905H242.756C242.662 101.169 242.07 100.801 240.98 100.801C239.89 100.801 239.345 101.14 239.345 101.82C239.345 102.103 239.461 102.317 239.692 102.464C239.923 102.61 240.213 102.73 240.562 102.825C240.911 102.919 241.291 103.006 241.702 103.086C242.112 103.167 242.492 103.28 242.841 103.426C243.19 103.572 243.48 103.773 243.711 104.028C243.942 104.282 244.058 104.631 244.058 105.075C244.058 105.764 243.799 106.29 243.28 106.653C242.761 107.016 242.058 107.198 241.171 107.198C240.227 107.198 239.477 106.962 238.921 106.49C238.411 106.075 238.137 105.532 238.1 104.863H239.204C239.27 105.514 239.638 105.952 240.308 106.179C240.553 106.254 240.796 106.292 241.036 106.292C241.277 106.292 241.501 106.278 241.709 106.249C241.916 106.221 242.119 106.169 242.317 106.094C242.77 105.915 242.997 105.608 242.997 105.174C242.997 104.881 242.881 104.657 242.65 104.502C242.419 104.346 242.129 104.219 241.779 104.12C241.43 104.02 241.051 103.931 240.64 103.851C240.23 103.77 239.85 103.66 239.501 103.518C239.152 103.377 238.862 103.183 238.63 102.938C238.399 102.692 238.284 102.353 238.284 101.919C238.284 101.277 238.517 100.78 238.984 100.426C239.451 100.072 240.142 99.895 241.058 99.895C241.926 99.895 242.61 100.103 243.11 100.518C243.525 100.867 243.766 101.329 243.832 101.905ZM258.14 97.7155V98.7345H254.871V107.084H253.809V98.7345H250.54V97.7155H258.14ZM263.377 99.895H263.448V100.956H263.32C262.556 100.956 261.933 101.263 261.452 101.876C260.999 102.461 260.773 103.159 260.773 103.971V107.084H259.711V100.008H260.773V101.749C260.999 101.013 261.49 100.471 262.245 100.121C262.556 99.9705 262.933 99.895 263.377 99.895ZM271.345 107.084V105.952C270.779 106.783 269.934 107.198 268.812 107.198C267.793 107.198 266.962 106.844 266.321 106.136C265.698 105.438 265.387 104.575 265.387 103.546C265.387 102.518 265.698 101.655 266.321 100.956C266.962 100.249 267.816 99.895 268.882 99.895C269.949 99.895 270.769 100.315 271.345 101.155V100.008H272.406V107.084H271.345ZM268.953 106.235C269.717 106.235 270.321 105.971 270.765 105.443C271.189 104.943 271.402 104.311 271.402 103.546C271.402 102.782 271.189 102.15 270.765 101.65C270.321 101.122 269.717 100.857 268.953 100.857C268.198 100.857 267.585 101.122 267.113 101.65C266.67 102.15 266.448 102.782 266.448 103.546C266.448 104.311 266.67 104.943 267.113 105.443C267.585 105.971 268.198 106.235 268.953 106.235ZM281.181 107.084V105.952C280.615 106.783 279.771 107.198 278.648 107.198C277.629 107.198 276.799 106.844 276.157 106.136C275.534 105.438 275.223 104.575 275.223 103.546C275.223 102.518 275.534 101.655 276.157 100.956C276.799 100.249 277.653 99.895 278.719 99.895C279.785 99.895 280.606 100.315 281.181 101.155V97.1777H282.243V107.084H281.181ZM278.789 106.235C279.554 106.235 280.158 105.971 280.601 105.443C281.026 104.943 281.238 104.311 281.238 103.546C281.238 102.782 281.026 102.15 280.601 101.65C280.158 101.122 279.554 100.857 278.789 100.857C278.035 100.857 277.421 101.122 276.95 101.65C276.506 102.15 276.284 102.782 276.284 103.546C276.284 104.311 276.506 104.943 276.95 105.443C277.421 105.971 278.035 106.235 278.789 106.235ZM285.498 107.084V100.008H286.559V107.084H285.498ZM285.456 97.4325H286.602V98.8194H285.456V97.4325ZM289.815 100.008H290.876V101.112C291.131 100.772 291.442 100.485 291.81 100.249C292.178 100.013 292.598 99.895 293.07 99.895C293.542 99.895 293.947 99.961 294.287 100.093C294.627 100.225 294.924 100.423 295.179 100.688C295.764 101.263 296.056 102.023 296.056 102.966V107.084H294.995V102.994C294.995 102.343 294.811 101.824 294.443 101.438C294.075 101.051 293.598 100.857 293.013 100.857C292.419 100.857 291.914 101.056 291.499 101.452C291.084 101.857 290.876 102.376 290.876 103.009V107.084H289.815V100.008ZM304.76 101.14V100.008H305.822V106.872C305.822 107.891 305.532 108.667 304.951 109.2C304.371 109.733 303.59 110 302.609 110C301.628 110 300.861 109.811 300.309 109.434C299.757 109.056 299.382 108.556 299.184 107.934H300.359C300.661 108.67 301.349 109.037 302.425 109.037C303.246 109.037 303.84 108.849 304.208 108.471C304.576 108.094 304.76 107.537 304.76 106.801V105.825C304.185 106.665 303.34 107.084 302.227 107.084C301.208 107.084 300.377 106.735 299.736 106.037C299.113 105.358 298.802 104.509 298.802 103.49C298.802 102.471 299.113 101.622 299.736 100.942C300.377 100.244 301.234 99.895 302.305 99.895C303.376 99.895 304.194 100.31 304.76 101.14ZM302.368 106.122C302.755 106.122 303.1 106.054 303.402 105.917C303.703 105.78 303.963 105.594 304.18 105.358C304.605 104.867 304.817 104.245 304.817 103.49C304.817 102.735 304.605 102.112 304.18 101.622C303.718 101.112 303.114 100.857 302.368 100.857C301.604 100.857 300.991 101.112 300.528 101.622C300.085 102.122 299.863 102.744 299.863 103.49C299.863 104.235 300.085 104.858 300.528 105.358C300.991 105.867 301.604 106.122 302.368 106.122ZM317.937 97.7155L321.914 107.084H320.739L319.593 104.367H314.95L313.804 107.084H312.629L316.606 97.7155H317.937ZM315.361 103.391H319.182L317.271 98.8194L315.361 103.391ZM324.291 100.008H325.353V101.112C325.608 100.772 325.919 100.485 326.287 100.249C326.655 100.013 327.075 99.895 327.547 99.895C328.018 99.895 328.424 99.961 328.764 100.093C329.103 100.225 329.401 100.423 329.655 100.688C330.24 101.263 330.533 102.023 330.533 102.966V107.084H329.471V102.994C329.471 102.343 329.287 101.824 328.919 101.438C328.551 101.051 328.075 100.857 327.49 100.857C326.895 100.857 326.391 101.056 325.976 101.452C325.56 101.857 325.353 102.376 325.353 103.009V107.084H324.291V100.008ZM339.237 107.084V105.952C338.671 106.783 337.826 107.198 336.703 107.198C335.684 107.198 334.854 106.844 334.213 106.136C333.59 105.438 333.278 104.575 333.278 103.546C333.278 102.518 333.59 101.655 334.213 100.956C334.854 100.249 335.708 99.895 336.774 99.895C337.84 99.895 338.661 100.315 339.237 101.155V100.008H340.298V107.084H339.237ZM336.845 106.235C337.609 106.235 338.213 105.971 338.657 105.443C339.081 104.943 339.293 104.311 339.293 103.546C339.293 102.782 339.081 102.15 338.657 101.65C338.213 101.122 337.609 100.857 336.845 100.857C336.09 100.857 335.477 101.122 335.005 101.65C334.562 102.15 334.34 102.782 334.34 103.546C334.34 104.311 334.562 104.943 335.005 105.443C335.477 105.971 336.09 106.235 336.845 106.235ZM344.615 97.1777V107.084H343.554V97.1777H344.615ZM353.942 100.008L349.753 109.887H348.606L349.894 106.985L347.007 100.008H348.182L350.46 105.811L352.781 100.008H353.942ZM358.145 107.084H357.084V100.942H355.64V100.008H357.084V97.4749H358.145V100.008H359.773V100.942H358.145V107.084ZM362.349 107.084V100.008H363.41V107.084H362.349ZM362.306 97.4325H363.453V98.8194H362.306V97.4325ZM369.935 106.235C370.388 106.235 370.789 106.108 371.138 105.853C371.487 105.598 371.742 105.268 371.902 104.863H373.048C372.831 105.561 372.435 106.122 371.86 106.547C371.256 106.981 370.539 107.198 369.708 107.198C368.67 107.198 367.826 106.844 367.175 106.136C366.543 105.447 366.227 104.584 366.227 103.546C366.227 102.508 366.543 101.645 367.175 100.956C367.826 100.249 368.67 99.895 369.708 99.895C370.539 99.895 371.256 100.112 371.86 100.546C372.435 100.971 372.831 101.532 373.048 102.23H371.902C371.742 101.824 371.487 101.494 371.138 101.239C370.789 100.985 370.388 100.857 369.935 100.857C369.482 100.857 369.097 100.928 368.781 101.07C368.465 101.211 368.199 101.405 367.982 101.65C367.519 102.159 367.288 102.792 367.288 103.546C367.288 104.301 367.519 104.933 367.982 105.443C368.453 105.971 369.104 106.235 369.935 106.235ZM380.96 101.905H379.884C379.79 101.169 379.198 100.801 378.108 100.801C377.018 100.801 376.473 101.14 376.473 101.82C376.473 102.103 376.589 102.317 376.82 102.464C377.051 102.61 377.341 102.73 377.691 102.825C378.04 102.919 378.419 103.006 378.83 103.086C379.24 103.167 379.62 103.28 379.969 103.426C380.318 103.572 380.608 103.773 380.84 104.028C381.071 104.282 381.186 104.631 381.186 105.075C381.186 105.764 380.927 106.29 380.408 106.653C379.889 107.016 379.186 107.198 378.299 107.198C377.356 107.198 376.605 106.962 376.049 106.49C375.539 106.075 375.266 105.532 375.228 104.863H376.332C376.398 105.514 376.766 105.952 377.436 106.179C377.681 106.254 377.924 106.292 378.165 106.292C378.405 106.292 378.629 106.278 378.837 106.249C379.045 106.221 379.247 106.169 379.446 106.094C379.898 105.915 380.125 105.608 380.125 105.174C380.125 104.881 380.009 104.657 379.778 104.502C379.547 104.346 379.257 104.219 378.908 104.12C378.559 104.02 378.179 103.931 377.768 103.851C377.358 103.77 376.978 103.66 376.629 103.518C376.28 103.377 375.99 103.183 375.759 102.938C375.527 102.692 375.412 102.353 375.412 101.919C375.412 101.277 375.645 100.78 376.112 100.426C376.58 100.072 377.271 99.895 378.186 99.895C379.054 99.895 379.738 100.103 380.238 100.518C380.653 100.867 380.894 101.329 380.96 101.905Z" fill="white" fill-opacity="0.66"></path></g><g clip-path="url(#clip1_686_11405)"><path d="M87.9043 83.4812V84.16C87.9043 84.594 87.8304 85.058 87.6826 85.5521C87.5303 86.0461 87.2855 86.5055 86.9485 86.9303C86.6114 87.3551 86.1728 87.7083 85.6326 87.99C85.0923 88.2763 84.4297 88.4194 83.6448 88.4194H70.2916C70.0376 88.4194 69.8022 88.3732 69.5851 88.2809C69.3681 88.1931 69.1811 88.0708 69.0241 87.9138C68.8672 87.7568 68.7448 87.5698 68.6571 87.3528C68.5647 87.1358 68.5186 86.9003 68.5186 86.6464V70.793C68.5186 70.5483 68.5647 70.3174 68.6571 70.1004C68.7448 69.888 68.8672 69.6987 69.0241 69.5325C69.1811 69.3709 69.3681 69.2462 69.5851 69.1585C69.8022 69.0661 70.0376 69.0199 70.2916 69.0199H82.0588C82.4928 69.0199 82.9568 69.0961 83.4509 69.2485C83.9495 69.4055 84.4113 69.6525 84.8361 69.9896C85.2655 70.3266 85.6233 70.7653 85.9096 71.3055C86.1912 71.8457 86.3321 72.5083 86.3321 73.2932V73.9581C86.3321 74.5814 86.2282 75.2509 86.0204 75.9666C85.8126 76.6823 85.4802 77.361 85.0231 78.0028C85.4202 78.2475 85.7918 78.5407 86.1381 78.8824C86.4844 79.2241 86.7892 79.6212 87.0524 80.0737C87.3109 80.5262 87.5187 81.0364 87.6757 81.6043C87.8281 82.1722 87.9043 82.7979 87.9043 83.4812ZM84.3859 84.1323V83.4812C84.3859 83.0195 84.3143 82.6062 84.1712 82.2415C84.028 81.8767 83.8249 81.5651 83.5617 81.3065C83.2985 81.0433 82.9822 80.8425 82.6128 80.7039C82.2435 80.5608 81.8279 80.4892 81.3662 80.4892H73.4429V76.9501H79.7871C80.2488 76.9501 80.6643 76.8785 81.0337 76.7354C81.4031 76.5969 81.7171 76.3983 81.9757 76.1398C82.2388 75.8766 82.4397 75.5626 82.5782 75.1978C82.7213 74.8331 82.7929 74.4198 82.7929 73.9581V73.2932C82.7929 72.7899 82.5482 72.5383 82.0588 72.5383H72.0369V84.901H83.6448C83.7048 84.901 83.781 84.8964 83.8734 84.8872C83.9611 84.8779 84.0419 84.8525 84.1158 84.811C84.1896 84.7648 84.252 84.6863 84.3028 84.5755C84.3582 84.4693 84.3859 84.3216 84.3859 84.1323ZM106.909 76.9501V80.4892H95.7998V76.9501H106.909ZM108.495 84.901V88.4194H95.7998C95.315 88.4194 94.784 88.334 94.2069 88.1631C93.6297 87.9923 93.0964 87.7106 92.607 87.3182C92.1129 86.9257 91.702 86.4155 91.3742 85.7875C91.0463 85.1596 90.8824 84.3908 90.8824 83.4812V70.793C90.8824 70.5483 90.9263 70.3174 91.014 70.1004C91.1064 69.888 91.231 69.6987 91.388 69.5325C91.545 69.3709 91.732 69.2462 91.949 69.1585C92.166 69.0661 92.3992 69.0199 92.6485 69.0199H108.495V72.5383H94.3939V83.4812C94.3939 83.9429 94.5162 84.2939 94.7609 84.534C95.0057 84.7787 95.3612 84.901 95.8275 84.901H108.495ZM129.418 69.0199V72.5383H121.668V88.4194H118.15V72.5383H110.386V69.0199H129.418ZM149.531 69.0199V72.5383H141.781V88.4194H138.263V72.5383H130.499V69.0199H149.531ZM172.207 76.867V80.5723C172.207 81.7544 172.004 82.8417 171.597 83.8344C171.191 84.8272 170.628 85.6837 169.907 86.404C169.182 87.1242 168.328 87.6852 167.345 88.0869C166.357 88.4886 165.281 88.6895 164.117 88.6895H159.352C158.189 88.6895 157.111 88.4886 156.118 88.0869C155.13 87.6852 154.273 87.1242 153.548 86.404C152.828 85.6837 152.262 84.8272 151.851 83.8344C151.441 82.8417 151.235 81.7544 151.235 80.5723V76.867C151.235 75.6942 151.441 74.6091 151.851 73.6118C152.262 72.6145 152.828 71.758 153.548 71.0423C154.273 70.3266 155.13 69.7656 156.118 69.3593C157.111 68.953 158.189 68.7498 159.352 68.7498H164.117C165.281 68.7498 166.357 68.953 167.345 69.3593C168.328 69.7656 169.182 70.3266 169.907 71.0423C170.628 71.758 171.191 72.6145 171.597 73.6118C172.004 74.6091 172.207 75.6942 172.207 76.867ZM168.688 80.5723V76.867C168.688 76.1744 168.578 75.5464 168.356 74.9831C168.134 74.4152 167.823 73.9327 167.421 73.5356C167.019 73.1339 166.537 72.8223 165.973 72.6006C165.41 72.379 164.791 72.2682 164.117 72.2682H159.352C158.669 72.2682 158.046 72.379 157.482 72.6006C156.919 72.8223 156.434 73.1339 156.028 73.5356C155.621 73.9327 155.308 74.4152 155.086 74.9831C154.864 75.5464 154.753 76.1744 154.753 76.867V80.5723C154.753 81.2696 154.864 81.8998 155.086 82.4631C155.308 83.0264 155.621 83.5089 156.028 83.9106C156.434 84.3123 156.919 84.6217 157.482 84.8387C158.046 85.0603 158.669 85.1711 159.352 85.1711H164.09C164.773 85.1711 165.396 85.0603 165.96 84.8387C166.523 84.6217 167.008 84.3123 167.414 83.9106C167.82 83.5089 168.134 83.0264 168.356 82.4631C168.578 81.8998 168.688 81.2696 168.688 80.5723ZM195.069 73.2932V75.5441C195.069 76.3429 194.97 77.0586 194.772 77.6912C194.573 78.3237 194.303 78.8801 193.961 79.3603C193.624 79.8451 193.234 80.2584 192.791 80.6C192.352 80.9417 191.89 81.2234 191.406 81.445C190.925 81.6666 190.438 81.8259 189.944 81.9229C189.455 82.0245 188.993 82.0753 188.559 82.0753L195.907 88.4194H190.464L183.136 82.0753H180.608V78.5569H188.559C189.002 78.52 189.406 78.4276 189.771 78.2799C190.136 78.1321 190.452 77.9313 190.72 77.6773C190.983 77.428 191.186 77.1232 191.329 76.7631C191.477 76.4076 191.551 76.0012 191.551 75.5441V73.3209C191.551 73.1224 191.526 72.9723 191.475 72.8707C191.424 72.7645 191.362 72.6884 191.288 72.6422C191.209 72.5914 191.126 72.5614 191.038 72.5522C190.955 72.5429 190.877 72.5383 190.803 72.5383H179.195V88.4194H175.684V70.793C175.684 70.5483 175.727 70.3174 175.815 70.1004C175.908 69.888 176.032 69.6987 176.189 69.5325C176.346 69.3709 176.533 69.2462 176.75 69.1585C176.967 69.0661 177.203 69.0199 177.457 69.0199H190.803C191.588 69.0199 192.25 69.1631 192.791 69.4493C193.336 69.731 193.776 70.0865 194.114 70.5159C194.451 70.9453 194.693 71.4071 194.841 71.9011C194.993 72.3998 195.069 72.8638 195.069 73.2932ZM221.173 70.5229V88.4194H217.627V76.867L211.394 87.8376C211.241 88.1193 211.027 88.3317 210.75 88.4748C210.477 88.6179 210.182 88.6895 209.863 88.6895C209.558 88.6895 209.272 88.6179 209.004 88.4748C208.741 88.3317 208.531 88.1193 208.374 87.8376L202.113 76.867V88.4194H198.595V70.5229C198.595 70.1165 198.715 69.7564 198.955 69.4424C199.195 69.1238 199.509 68.9114 199.897 68.8052C200.086 68.7591 200.275 68.7429 200.465 68.7568C200.654 68.7706 200.836 68.8122 201.012 68.8814C201.187 68.9461 201.347 69.0407 201.49 69.1654C201.633 69.2854 201.755 69.4309 201.857 69.6017L209.863 83.5228L217.87 69.6017C218.077 69.26 218.364 69.0176 218.728 68.8745C219.098 68.7267 219.481 68.7037 219.878 68.8052C220.257 68.9114 220.566 69.1238 220.806 69.4424C221.051 69.7564 221.173 70.1165 221.173 70.5229ZM241.21 76.9501V80.4892H230.101V76.9501H241.21ZM242.789 84.901V88.4194H230.101C229.616 88.4194 229.085 88.334 228.508 88.1631C227.931 87.9923 227.395 87.7106 226.901 87.3182C226.412 86.9257 226.001 86.4155 225.668 85.7875C225.34 85.1596 225.176 84.3908 225.176 83.4812V70.793C225.176 70.5483 225.223 70.3174 225.315 70.1004C225.403 69.888 225.525 69.6987 225.682 69.5325C225.844 69.3709 226.031 69.2462 226.243 69.1585C226.46 69.0661 226.695 69.0199 226.949 69.0199H242.789V72.5383H228.695V83.4812C228.695 83.9429 228.817 84.2939 229.062 84.534C229.302 84.7787 229.657 84.901 230.128 84.901H242.789ZM263.719 69.0199V72.5383H255.962V88.4194H252.451V72.5383H244.687V69.0199H263.719ZM285.681 73.2932V75.5441C285.681 76.3429 285.584 77.0586 285.391 77.6912C285.192 78.3237 284.922 78.8801 284.58 79.3603C284.243 79.8451 283.853 80.2584 283.41 80.6C282.971 80.9417 282.509 81.2234 282.024 81.445C281.544 81.6666 281.057 81.8259 280.563 81.9229C280.074 82.0245 279.612 82.0753 279.178 82.0753L286.526 88.4194H281.083L273.755 82.0753H271.227V78.5569H279.178C279.621 78.52 280.025 78.4276 280.39 78.2799C280.755 78.1321 281.071 77.9313 281.339 77.6773C281.602 77.428 281.805 77.1232 281.948 76.7631C282.096 76.4076 282.17 76.0012 282.17 75.5441V73.3209C282.17 73.1224 282.145 72.9723 282.094 72.8707C282.043 72.7645 281.981 72.6884 281.907 72.6422C281.828 72.5914 281.745 72.5614 281.657 72.5522C281.574 72.5429 281.496 72.5383 281.422 72.5383H269.814V88.4194H266.303V70.793C266.303 70.5483 266.346 70.3174 266.434 70.1004C266.527 69.888 266.651 69.6987 266.808 69.5325C266.965 69.3709 267.152 69.2462 267.369 69.1585C267.586 69.0661 267.822 69.0199 268.076 69.0199H281.422C282.207 69.0199 282.869 69.1631 283.41 69.4493C283.955 69.731 284.395 70.0865 284.733 70.5159C285.07 70.9453 285.312 71.4071 285.46 71.9011C285.608 72.3998 285.681 72.8638 285.681 73.2932ZM292.76 69.0199V88.4194H289.241V69.0199H292.76ZM314.244 84.901V88.4194H301.556C301.228 88.4194 300.877 88.3801 300.503 88.3016C300.129 88.2278 299.76 88.11 299.395 87.9484C299.03 87.7822 298.681 87.5721 298.349 87.3182C298.012 87.0596 297.716 86.7479 297.462 86.3832C297.204 86.0184 296.998 85.5936 296.846 85.1088C296.694 84.6286 296.617 84.0861 296.617 83.4812V73.9581C296.617 73.6349 296.654 73.2863 296.728 72.9123C296.807 72.5383 296.927 72.1689 297.088 71.8042C297.25 71.4348 297.462 71.0839 297.726 70.7514C297.984 70.419 298.298 70.1235 298.668 69.8649C299.032 69.611 299.452 69.4055 299.928 69.2485C300.408 69.0961 300.951 69.0199 301.556 69.0199H314.244V72.5383H301.556C301.094 72.5383 300.741 72.6607 300.496 72.9054C300.251 73.1455 300.129 73.5056 300.129 73.9858V83.4812C300.129 83.9337 300.254 84.2823 300.503 84.527C300.752 84.7764 301.103 84.901 301.556 84.901H314.244ZM336.144 82.7124C336.144 83.405 336.056 84.0284 335.881 84.5824C335.701 85.1365 335.467 85.6259 335.181 86.0507C334.89 86.4755 334.551 86.8357 334.163 87.1312C333.78 87.4313 333.38 87.676 332.965 87.8653C332.549 88.0546 332.127 88.1931 331.697 88.2809C331.268 88.3732 330.864 88.4194 330.485 88.4194H316.917V84.901H330.485C331.164 84.901 331.69 84.7025 332.064 84.3054C332.438 83.9083 332.625 83.3773 332.625 82.7124C332.625 82.3846 332.575 82.0868 332.473 81.819C332.376 81.5466 332.235 81.3111 332.051 81.1126C331.866 80.914 331.64 80.7617 331.372 80.6555C331.109 80.5446 330.813 80.4892 330.485 80.4892H322.396C321.828 80.4892 321.216 80.39 320.56 80.1914C319.9 79.9883 319.288 79.6604 318.725 79.2079C318.162 78.7554 317.693 78.1644 317.319 77.4349C316.945 76.7054 316.758 75.8119 316.758 74.7546C316.758 73.7019 316.945 72.813 317.319 72.0881C317.693 71.3586 318.162 70.7676 318.725 70.3151C319.288 69.858 319.9 69.5278 320.56 69.3247C321.216 69.1215 321.828 69.0199 322.396 69.0199H334.371V72.5383H322.396C321.731 72.5383 321.211 72.7415 320.837 73.1478C320.463 73.5541 320.276 74.0897 320.276 74.7546C320.276 75.4333 320.463 75.9689 320.837 76.3614C321.211 76.7539 321.731 76.9501 322.396 76.9501H330.485H330.513C330.892 76.9593 331.293 77.0101 331.718 77.1025C332.143 77.1994 332.565 77.3472 332.986 77.5457C333.401 77.7443 333.798 77.9936 334.177 78.2937C334.555 78.5985 334.893 78.9609 335.188 79.3811C335.479 79.8059 335.712 80.293 335.888 80.8425C336.058 81.3919 336.144 82.0152 336.144 82.7124Z" fill="white"></path></g><g opacity="0.2"><g clip-path="url(#clip2_686_11405)"><path d="M55 109.999C57.1644 109.999 58.8195 108.344 58.8195 106.18C58.8195 104.015 57.1644 102.36 55 102.36C28.9005 102.36 7.63889 81.0987 7.63889 54.9993C7.63889 28.8999 28.9005 7.63837 55 7.63837C57.1644 7.63837 58.8195 5.98329 58.8195 3.81894C58.8195 1.6546 57.1644 -0.000488281 55 -0.000488281C24.6991 -0.000488281 0 24.6985 0 54.9993C0 85.3001 24.6991 109.999 55 109.999Z" fill="white"></path><path d="M12.7314 54.9998C12.7314 78.2983 31.7014 97.2682 55 97.2682C57.1643 97.2682 58.8194 95.6131 58.8194 93.4487C58.8194 91.2844 57.1643 89.6293 55 89.6293C35.9027 89.6293 20.3703 74.097 20.3703 54.9998C20.3703 35.9027 35.9027 20.3703 55 20.3703C74.0972 20.3703 89.6296 35.9027 89.6296 54.9998C89.6296 57.1642 91.2847 58.8192 93.4491 58.8192C95.6134 58.8192 97.2685 57.1642 97.2685 54.9998C97.2685 31.7013 78.2986 12.7314 55 12.7314C31.7014 12.7314 12.7314 31.7013 12.7314 54.9998Z" fill="white"></path><path d="M54.9999 76.8979C42.905 76.8979 33.1018 67.0947 33.1018 54.9998C33.1018 42.905 42.905 33.1018 54.9999 33.1018C57.1643 33.1018 58.8194 31.4467 58.8194 29.2823C58.8194 27.118 57.1643 25.4629 54.9999 25.4629C38.7036 25.4629 25.4629 38.7036 25.4629 54.9998C25.4629 71.2961 38.7036 84.5367 54.9999 84.5367C57.1643 84.5367 58.8194 82.8817 58.8194 80.7173C58.8194 78.553 57.1643 76.8979 54.9999 76.8979Z" fill="white"></path><path d="M54.9999 45.8332C60.0925 45.8332 64.1666 50.0346 64.1666 54.9998C64.1666 57.1642 65.8217 58.8193 67.986 58.8193C70.1504 58.8193 71.8055 57.1642 71.8055 54.9998C71.8055 45.7059 64.2939 38.1943 54.9999 38.1943C45.7059 38.1943 38.1943 45.7059 38.1943 54.9998C38.1943 64.2938 45.7059 71.8053 54.9999 71.8053C57.1643 71.8053 58.8193 70.1502 58.8193 67.9859C58.8193 65.8215 57.1643 64.1665 54.9999 64.1665C49.9073 64.1665 45.8332 59.9651 45.8332 54.9998C45.8332 50.0346 49.9073 45.8332 54.9999 45.8332Z" fill="white"></path></g></g><defs><clipPath id="clip0_686_11405"><rect width="312.668" height="12.8221" fill="white" transform="translate(68.5186 97.1777)"></rect></clipPath><clipPath id="clip1_686_11405"><rect width="267.623" height="19.9456" fill="white" transform="translate(68.5186 68.7446)"></rect></clipPath><clipPath id="clip2_686_11405"><rect width="97.2685" height="110" fill="white"></rect></clipPath></defs></svg>