<?xml version="1.0" encoding="UTF-8"?>
<svg version="1.1" xmlns="http://www.w3.org/2000/svg" width="1000" height="250">
<path d="M0 0 C0.76585922 -0.0065712 1.53171844 -0.0131424 2.32078552 -0.01991272 C4.86571336 -0.03969076 7.4105821 -0.05131771 9.95556641 -0.0612793 C10.8224773 -0.06535482 11.6893882 -0.06943035 12.58256912 -0.07362938 C17.1701153 -0.0945085 21.75763139 -0.10880269 26.34521484 -0.11816406 C31.09254895 -0.12923769 35.83941549 -0.16364303 40.58658409 -0.20333576 C44.2290842 -0.22943485 47.87147176 -0.23784985 51.51405716 -0.24144554 C53.26441229 -0.24632825 55.01476185 -0.25798983 56.76502609 -0.27648354 C59.21222111 -0.30073539 61.65819131 -0.29993621 64.10546875 -0.29296875 C64.83182022 -0.30577881 65.55817169 -0.31858887 66.30653381 -0.33178711 C69.54013125 -0.2981437 71.22111902 -0.27633544 73.57998657 2.04327393 C74.88032066 4.56069768 76.00913253 7.07832001 77.05712891 9.7121582 C77.48509766 10.76854492 77.91306641 11.82493164 78.35400391 12.91333008 C79.240766 15.13414749 80.12617891 17.3555041 81.01025391 19.57739258 C81.43822266 20.63249023 81.86619141 21.68758789 82.30712891 22.7746582 C82.88333984 24.22110718 82.88333984 24.22110718 83.47119141 25.69677734 C84.62876709 28.06770706 85.69889054 29.47140263 87.68212891 31.17700195 C87.86001953 29.87146362 87.86001953 29.87146362 88.04150391 28.53955078 C88.67344839 25.22256472 89.62473054 22.48206758 90.93212891 19.3762207 C91.59728516 17.78777344 91.59728516 17.78777344 92.27587891 16.16723633 C92.73994141 15.07733398 93.20400391 13.98743164 93.68212891 12.86450195 C94.14619141 11.75526367 94.61025391 10.64602539 95.08837891 9.50317383 C98.53378235 1.32534851 98.53378235 1.32534851 99.68212891 0.17700195 C101.1708475 0.09030763 102.6635739 0.06996702 104.15478516 0.0793457 C105.05390625 0.08256836 105.95302734 0.08579102 106.87939453 0.08911133 C108.29768555 0.10167969 108.29768555 0.10167969 109.74462891 0.11450195 C111.1687207 0.12126953 111.1687207 0.12126953 112.62158203 0.12817383 C114.97515956 0.14000085 117.32861368 0.1564817 119.68212891 0.17700195 C119.68212891 3.87319337 119.43048569 5.26110379 118.02978516 8.4934082 C117.66981445 9.33081543 117.30984375 10.16822266 116.93896484 11.03100586 C116.34776855 12.37171143 116.34776855 12.37171143 115.74462891 13.73950195 C115.13989746 15.13048096 115.13989746 15.13048096 114.52294922 16.54956055 C111.112011 24.33597303 107.51148703 32.02678694 103.82275391 39.68481445 C103.48268311 40.41112061 103.1426123 41.13742676 102.79223633 41.88574219 C102.01289137 43.49430882 101.18249969 45.07865632 100.31616211 46.64208984 C96.17650724 54.56184351 96.08356497 61.54933165 96.36962891 70.36450195 C96.39478001 71.71146508 96.41758101 73.05847422 96.43798828 74.40551758 C96.49638196 77.66388491 96.57823417 80.91982201 96.68212891 84.17700195 C92.20683198 85.15905268 87.93482648 85.29253821 83.36962891 85.23950195 C82.6290625 85.23499023 81.88849609 85.23047852 81.12548828 85.22583008 C79.31099992 85.2141237 77.49655356 85.19619093 75.68212891 85.17700195 C75.69896729 84.34265625 75.71580566 83.50831055 75.7331543 82.64868164 C75.95503036 65.75822136 75.4826302 51.69362557 67.02294922 36.63500977 C64.49962795 32.00922707 62.34910511 27.19922971 60.11962891 22.42700195 C59.26660585 20.63937452 58.41136798 18.85280111 57.55322266 17.06762695 C57.19156006 16.31513672 56.82989746 15.56264648 56.45727539 14.78735352 C56.07357788 13.99022949 56.07357788 13.99022949 55.68212891 13.17700195 C54.25338244 14.43424983 54.25338244 14.43424983 53.68212891 18.17700195 C46.75212891 18.17700195 39.82212891 18.17700195 32.68212891 18.17700195 C33.17712891 20.65200195 33.17712891 20.65200195 33.68212891 23.17700195 C33.76681829 25.23135076 33.79991121 27.28814898 33.7956543 29.34423828 C33.79557877 30.5651265 33.79550323 31.78601471 33.79542542 33.04389954 C33.79026413 34.35239365 33.78510284 35.66088776 33.77978516 37.0090332 C33.77791851 38.36952156 33.77649577 39.7300106 33.77549744 41.09049988 C33.77169166 44.65955483 33.76187805 48.22856865 33.75079346 51.79760742 C33.74053753 55.4442489 33.73599088 59.09089706 33.73095703 62.73754883 C33.72025393 69.88405157 33.70267295 77.03051974 33.68212891 84.17700195 C23.28712891 84.67200195 23.28712891 84.67200195 12.68212891 85.17700195 C12.01429694 80.50217821 11.55866242 76.58891932 11.56860352 71.96630859 C11.56867905 70.78561295 11.56875458 69.6049173 11.5688324 68.38844299 C11.57399368 67.13401901 11.57915497 65.87959503 11.58447266 64.5871582 C11.5858876 63.28749619 11.58730255 61.98783417 11.58876038 60.64878845 C11.59255557 57.21456943 11.60235982 53.78039354 11.61346436 50.34619141 C11.62374335 46.83342065 11.62827182 43.32064283 11.63330078 39.80786133 C11.64398515 32.93088883 11.66155724 26.05395191 11.68212891 19.17700195 C5.08212891 18.84700195 -1.51787109 18.51700195 -8.31787109 18.17700195 C-8.33849609 15.39262695 -8.35912109 12.60825195 -8.38037109 9.73950195 C-8.3894751 8.86108643 -8.3985791 7.9826709 -8.40795898 7.07763672 C-8.415102 5.11054221 -8.36819002 3.14346574 -8.31787109 1.17700195 C-6.37161855 -0.76925059 -2.65704058 0.00978166 0 0 Z " fill="#4FF3C8" transform="translate(730.31787109375,82.822998046875)"/>
<path d="M0 0 C6.6 0 13.2 0 20 0 C25.54478846 9.85740171 30.96372082 19.6975671 35.91796875 29.86328125 C38.78045252 35.66000172 41.91579219 41.31930203 45 47 C44.99777939 46.4406778 44.99555878 45.88135559 44.99327087 45.30508423 C44.97119418 39.49799232 44.95608339 33.69091228 44.94506836 27.88378906 C44.94003109 25.71483883 44.93320109 23.545892 44.92456055 21.37695312 C44.91246849 18.26431437 44.90676572 15.1517204 44.90234375 12.0390625 C44.89718246 11.065065 44.89202118 10.0910675 44.88670349 9.08755493 C44.88662796 8.18677216 44.88655243 7.28598938 44.88647461 6.35791016 C44.884254 5.56293121 44.88203339 4.76795227 44.87974548 3.94888306 C45 2 45 2 46 0 C51.94 0 57.88 0 64 0 C66.12954513 4.25909027 66.27214282 7.19694764 66.22705078 11.79785156 C66.22734283 12.57872131 66.22763489 13.35959106 66.22793579 14.16412354 C66.2265448 16.73973788 66.21099452 19.31506132 66.1953125 21.890625 C66.19158155 23.67852622 66.18873496 25.4664295 66.18673706 27.2543335 C66.17910707 31.95615297 66.159464 36.65784856 66.1373291 41.35961914 C66.11685704 46.15899988 66.10773243 50.95840067 66.09765625 55.7578125 C66.07621753 65.17192938 66.0420892 74.58595438 66 84 C62.48329647 85.75835176 58.56355872 85.43858139 54.6875 85.5625 C53.83220703 85.62501953 52.97691406 85.68753906 52.09570312 85.75195312 C45.97768315 85.90833938 45.97768315 85.90833938 43.50610352 83.61206055 C42.13052204 81.47606273 41.07017563 79.30473699 40 77 C38.96323637 75.04366034 37.9226083 73.0893656 36.87890625 71.13671875 C35.77005151 68.98872373 34.66464781 66.83894408 33.5625 64.6875 C26.77641649 51.06006363 26.77641649 51.06006363 19 38 C19 53.18 19 68.36 19 84 C16.59564994 85.20217503 15.31618631 85.03897118 12.6484375 84.87890625 C11.79765625 84.83056641 10.946875 84.78222656 10.0703125 84.73242188 C9.18085937 84.67634766 8.29140625 84.62027344 7.375 84.5625 C6.4778125 84.51029297 5.580625 84.45808594 4.65625 84.40429688 C2.43715988 84.2744565 0.21850129 84.13948661 -2 84 C-2.04638263 73.9337071 -2.08189935 63.86743971 -2.10362434 53.80106163 C-2.11405232 49.12661331 -2.12819357 44.45223821 -2.15087891 39.77783203 C-2.17264237 35.26503405 -2.18457604 30.75230641 -2.18975449 26.23945999 C-2.19344395 24.51951617 -2.20064854 22.79957612 -2.21146011 21.07966232 C-2.22602163 18.66679373 -2.227976 16.2542142 -2.22705078 13.84130859 C-2.23424133 13.13352264 -2.24143188 12.42573669 -2.24884033 11.69650269 C-2.2299771 7.13699085 -1.51217875 4.53653625 0 0 Z " fill="#4FF2C7" transform="translate(624,83)"/>
<path d="M0 0 C1.03966164 -0.00143509 1.03966164 -0.00143509 2.10032654 -0.00289917 C3.58080129 -0.00358219 5.06127899 -0.00171946 6.54174805 0.00244141 C8.74730732 0.00766729 10.9526513 0.00256529 13.15820312 -0.00390625 C22.88915765 -0.00800989 32.5426746 0.41233876 42.24609375 1.1328125 C42.38517302 3.09537549 42.52419656 5.05794247 42.66281128 7.02053833 C42.77077307 8.53853486 42.88176286 10.0563167 42.99438477 11.57397461 C43.11764486 13.42471916 43.18369675 15.27901772 43.24609375 17.1328125 C42.24609375 18.1328125 42.24609375 18.1328125 39.56225586 18.24633789 C38.3944458 18.24110107 37.22663574 18.23586426 36.0234375 18.23046875 C34.76337891 18.22724609 33.50332031 18.22402344 32.20507812 18.22070312 C30.86458266 18.21234653 29.52408787 18.20388157 28.18359375 18.1953125 C26.83919433 18.1902991 25.49479315 18.18573592 24.15039062 18.18164062 C20.84893942 18.16980747 17.54751115 18.15187136 14.24609375 18.1328125 C14.24609375 22.7528125 14.24609375 27.3728125 14.24609375 32.1328125 C14.90609375 31.8028125 15.56609375 31.4728125 16.24609375 31.1328125 C19.90703075 30.86647449 23.57654629 30.90129889 27.24609375 30.8828125 C28.26960937 30.8621875 29.293125 30.8415625 30.34765625 30.8203125 C31.32476563 30.81515625 32.301875 30.81 33.30859375 30.8046875 C34.20707031 30.7953418 35.10554687 30.78599609 36.03125 30.77636719 C36.76214844 30.89399414 37.49304688 31.01162109 38.24609375 31.1328125 C40.75801438 34.90069344 40.27059988 37.53224956 39.87109375 41.8203125 C39.66484375 44.2334375 39.45859375 46.6465625 39.24609375 49.1328125 C31.32609375 49.4628125 23.40609375 49.7928125 15.24609375 50.1328125 C14.91609375 55.7428125 14.58609375 61.3528125 14.24609375 67.1328125 C23.81609375 67.1328125 33.38609375 67.1328125 43.24609375 67.1328125 C44.37740259 70.52673901 44.37901315 73.18616122 44.37109375 76.7578125 C44.37496094 78.50964844 44.37496094 78.50964844 44.37890625 80.296875 C44.24609375 83.1328125 44.24609375 83.1328125 43.24609375 84.1328125 C31.95351963 85.32957987 20.58633968 85.26005109 9.24609375 85.1953125 C7.68099105 85.1902774 6.11588674 85.18571812 4.55078125 85.18164062 C0.78251109 85.17081724 -2.98567882 85.15366866 -6.75390625 85.1328125 C-7.96688719 81.49386968 -7.89359191 78.1603843 -7.88330078 74.37255859 C-7.88592926 73.18925209 -7.88592926 73.18925209 -7.88861084 71.98204041 C-7.89301384 69.37342126 -7.89009737 66.76486984 -7.88671875 64.15625 C-7.8873921 62.34689318 -7.88836239 60.53753644 -7.88961792 58.72817993 C-7.89109268 54.93694192 -7.88894695 51.14572746 -7.88427734 47.35449219 C-7.87857205 42.48390014 -7.88186552 37.6133631 -7.88784981 32.74277306 C-7.89145446 29.00771669 -7.89031742 25.27267348 -7.88772202 21.53761673 C-7.8870529 19.74098326 -7.88788062 17.94434862 -7.89020157 16.14771652 C-7.89272741 13.64320434 -7.88888887 11.13878274 -7.88330078 8.63427734 C-7.88532501 7.88517593 -7.88734924 7.13607452 -7.88943481 6.36427307 C-7.86059401 -0.57621425 -6.73017894 0.00595177 0 0 Z " fill="#4FF3C9" transform="translate(517.75390625,82.8671875)"/>
<path d="M0 0 C6.93 0 13.86 0 21 0 C24.37547648 7.87611178 24.37547648 7.87611178 25.22680664 10.86474609 C25.42033218 11.53589447 25.61385773 12.20704285 25.81324768 12.89852905 C26.01022751 13.59974884 26.20720734 14.30096863 26.41015625 15.0234375 C26.62312851 15.76904938 26.83610077 16.51466125 27.05552673 17.28286743 C27.50219895 18.85038536 27.94663127 20.41854316 28.38891602 21.98730469 C29.05909633 24.3629348 29.73696648 26.73626659 30.41601562 29.109375 C33.98826 41.65831156 33.98826 41.65831156 35.24609375 47.5390625 C35.63272693 50.81286121 35.63272693 50.81286121 37 52 C37.34780518 50.81035645 37.69561035 49.62071289 38.05395508 48.39501953 C39.35633822 43.94065245 40.65918204 39.48642021 41.9621582 35.03222656 C42.52380546 33.11201538 43.08533124 31.19176866 43.64672852 29.27148438 C44.45816881 26.49599791 45.27005993 23.72064365 46.08203125 20.9453125 C46.32903275 20.1001004 46.57603424 19.25488831 46.83052063 18.38406372 C47.30892762 16.74946887 47.78869207 15.11527059 48.26992798 13.48150635 C48.78835056 11.71939399 49.30254322 9.95603471 49.81381226 8.1918335 C50.21281235 6.83013031 50.21281235 6.83013031 50.61987305 5.44091797 C50.86037888 4.61413544 51.1008847 3.78735291 51.34867859 2.93551636 C52 1 52 1 53 0 C54.4887186 -0.08669432 55.981445 -0.10703494 57.47265625 -0.09765625 C58.37177734 -0.09443359 59.27089844 -0.09121094 60.19726562 -0.08789062 C61.61555664 -0.07532227 61.61555664 -0.07532227 63.0625 -0.0625 C64.4865918 -0.05573242 64.4865918 -0.05573242 65.93945312 -0.04882812 C68.29303065 -0.0370011 70.64648477 -0.02052025 73 0 C74.18583435 3.44536977 73.80666369 5.45174862 72.6640625 8.875 C72.18706909 10.33196289 72.18706909 10.33196289 71.70043945 11.81835938 C71.34554443 12.86830078 70.99064941 13.91824219 70.625 15 C69.88134602 17.26036259 69.13786293 19.5207814 68.39453125 21.78125 C68.00217285 22.96203125 67.60981445 24.1428125 67.20556641 25.359375 C65.2068568 31.39517039 63.2594884 37.44736095 61.3125 43.5 C60.7410022 45.26996338 60.7410022 45.26996338 60.15795898 47.07568359 C58.07040593 53.56654787 56.06592269 60.07075896 54.1875 66.625 C50.09291473 80.75935783 50.09291473 80.75935783 48 84 C45.25979023 84.90675495 42.76286268 85.11941563 39.890625 85.09765625 C39.13652344 85.09443359 38.38242187 85.09121094 37.60546875 85.08789062 C36.82816406 85.07951172 36.05085938 85.07113281 35.25 85.0625 C34.45722656 85.05798828 33.66445313 85.05347656 32.84765625 85.04882812 C30.89840492 85.03708565 28.94919262 85.01915146 27 85 C22.9333759 76.48732994 20.07193128 67.63131424 17.125 58.6875 C16.58521526 57.06084201 16.04533845 55.43421457 15.50537109 53.80761719 C12.50209101 44.73013395 9.60654846 35.63331195 6.96118164 26.4440918 C5.22655551 20.4993356 3.11603508 14.73695633 0.73876953 9.01855469 C-0.76844251 5.26304297 -1.02488696 4.09954782 0 0 Z " fill="#4FF3C8" transform="translate(435,83)"/>
<path d="M0 0 C1.40166664 -0.00956978 1.40166664 -0.00956978 2.83164978 -0.01933289 C3.84828201 -0.02044571 4.86491425 -0.02155853 5.91235352 -0.02270508 C6.94940933 -0.02603348 7.98646515 -0.02936188 9.0549469 -0.03279114 C11.25326085 -0.03786493 13.45158254 -0.04019932 15.64990234 -0.04003906 C19.02332177 -0.04222471 22.39641394 -0.06037347 25.76977539 -0.0793457 C27.90063364 -0.08227962 30.03149345 -0.08426443 32.16235352 -0.08520508 C33.17696152 -0.09239059 34.19156952 -0.09957611 35.23692322 -0.10697937 C36.17451981 -0.10390274 37.11211639 -0.10082611 38.078125 -0.09765625 C38.90561752 -0.09908127 39.73311005 -0.10050629 40.5856781 -0.10197449 C42.60375977 0.14526367 42.60375977 0.14526367 44.60375977 2.14526367 C44.77539707 4.70818684 44.83640534 7.14872224 44.79125977 9.70776367 C44.79061523 10.40579102 44.7899707 11.10381836 44.78930664 11.82299805 C44.74407135 17.00495209 44.74407135 17.00495209 43.60375977 18.14526367 C41.4581715 18.23301972 39.30971555 18.25221586 37.16235352 18.24291992 C35.85717773 18.23969727 34.55200195 18.23647461 33.20727539 18.2331543 C31.81860287 18.22479768 30.42993099 18.21633272 29.04125977 18.20776367 C27.64868321 18.20275033 26.25610495 18.19818714 24.86352539 18.1940918 C21.44358526 18.18225809 18.02366727 18.16432198 14.60375977 18.14526367 C14.60375977 22.76526367 14.60375977 27.38526367 14.60375977 32.14526367 C15.75875977 31.98026367 16.91375977 31.81526367 18.10375977 31.64526367 C22.74857548 31.13990772 27.37303127 30.96637468 32.04125977 30.89526367 C32.7515332 30.87399414 33.46180664 30.85272461 34.19360352 30.83081055 C36.22485352 30.81713867 36.22485352 30.81713867 39.60375977 31.14526367 C42.0797551 34.85925667 41.84115302 36.85244277 41.79125977 41.27026367 C41.78481445 42.5309668 41.77836914 43.79166992 41.77172852 45.09057617 C41.60375977 48.14526367 41.60375977 48.14526367 40.60375977 49.14526367 C38.67897164 49.30332898 36.74876766 49.39639867 34.81860352 49.46166992 C33.6487793 49.50356445 32.47895508 49.54545898 31.27368164 49.58862305 C30.04198242 49.62793945 28.8102832 49.66725586 27.54125977 49.70776367 C25.68791016 49.77253906 25.68791016 49.77253906 23.79711914 49.83862305 C20.73281136 49.94510478 17.66830092 50.04572433 14.60375977 50.14526367 C14.60375977 55.75526367 14.60375977 61.36526367 14.60375977 67.14526367 C24.17375977 67.14526367 33.74375977 67.14526367 43.60375977 67.14526367 C44.79057702 70.70571544 44.70065808 73.58334704 44.66625977 77.33276367 C44.65723633 78.60506836 44.64821289 79.87737305 44.63891602 81.18823242 C44.62731445 82.16405273 44.61571289 83.13987305 44.60375977 84.14526367 C39.57267994 84.31505828 34.54141159 84.47534294 29.50976562 84.62744141 C27.80395691 84.68027122 26.09822171 84.73554072 24.39257812 84.79345703 C14.37246801 85.13187485 4.58967539 85.22527868 -5.39624023 84.14526367 C-6.4757364 80.63601378 -6.52309204 77.39117768 -6.52563477 73.73120117 C-6.52878693 72.42884521 -6.53193909 71.12648926 -6.53518677 69.78466797 C-6.53339532 68.36319953 -6.53134395 66.94173139 -6.52905273 65.52026367 C-6.52972712 64.05257145 -6.53069827 62.58487934 -6.5319519 61.1171875 C-6.53342623 58.03717996 -6.53128531 54.95720143 -6.52661133 51.87719727 C-6.52095439 47.96168668 -6.5241689 44.04624527 -6.53018379 40.1307373 C-6.53383108 37.09523008 -6.53263119 34.05973871 -6.530056 31.02423096 C-6.5293961 29.58278393 -6.53018178 28.14133539 -6.53253555 26.69989014 C-6.55479687 9.21421653 -6.55479687 9.21421653 -5.39624023 1.14526367 C-3.81265419 -0.43832237 -2.19633663 0.01012704 0 0 Z " fill="#50F2C9" transform="translate(571.396240234375,82.854736328125)"/>
<path d="M0 0 C5.08537365 4.2476287 9.79997085 8.70914435 14.4375 13.4375 C18.90393786 17.95205226 23.38285828 22.34870778 28.23046875 26.45703125 C32.47575435 30.15877035 36.53310148 34.12053628 40 38.5625 C42.42861399 41.5223733 45.18855911 43.86914193 48.09375 46.3515625 C50.16400548 48.14182441 52.10475378 50.02578518 54 52 C52.64571539 55.10412761 51.22865747 56.91475724 48.625 59.0625 C45.11812011 62.03229018 41.69253264 65.07468981 38.3125 68.1875 C37.81411621 68.64560059 37.31573242 69.10370117 36.80224609 69.57568359 C35.20037553 71.04924286 33.5999834 72.52439196 32 74 C31.40300293 74.55042969 30.80600586 75.10085937 30.19091797 75.66796875 C26.45862457 79.10983045 22.72855721 82.55409148 19 86 C10.70212502 82.02418364 3.35124797 76.23651812 -1 68 C-3.62027935 57.75830436 -2.97921964 46.91018654 -2.67877197 36.42285156 C-2.60644374 33.3320304 -2.60268331 30.24280996 -2.60210609 27.15126228 C-2.60059685 20.77718059 -2.5471184 14.40390019 -2.38916016 8.03173828 C-2.36310699 6.91195587 -2.33705383 5.79217346 -2.31021118 4.63845825 C-2 2 -2 2 0 0 Z " fill="#4FF4C9" transform="translate(265,50)"/>
<path d="M0 0 C0.99 0.33 1.98 0.66 3 1 C3 1.66 3 2.32 3 3 C3.5775 3.2475 4.155 3.495 4.75 3.75 C7.32939979 5.18299988 9.06121592 6.78424676 11 9 C11 9.66 11 10.32 11 11 C11.5775 11.226875 12.155 11.45375 12.75 11.6875 C16.0721421 13.62541622 18.440002 16.21505755 19.60519409 19.92900085 C20.26111956 23.36973227 20.14167316 26.84203187 20.1328125 30.33203125 C20.13479141 31.5636927 20.13479141 31.5636927 20.1368103 32.82023621 C20.13872377 35.48436275 20.13240231 38.14838419 20.125 40.8125 C20.12367065 42.16251099 20.12367065 42.16251099 20.12231445 43.53979492 C20.10623008 57.3834869 19.83406478 71.17835509 19 85 C15.4802568 84.24538293 14.23761855 83.48029451 12 80.625 C8.71837016 76.70355554 5.14970028 73.33836403 1.34033203 69.93457031 C-5.12315251 64.08675 -11.20201384 57.8454114 -17.32104492 51.64160156 C-18.57365112 50.37654785 -18.57365112 50.37654785 -19.8515625 49.0859375 C-20.60260254 48.3232959 -21.35364258 47.5606543 -22.12744141 46.77490234 C-23.8858678 44.9359312 -23.8858678 44.9359312 -26 44 C-26 43.34 -26 42.68 -26 42 C-26.66 42 -27.32 42 -28 42 C-29.7265625 40.25 -29.7265625 40.25 -31.625 38 C-32.25664062 37.2575 -32.88828125 36.515 -33.5390625 35.75 C-34.02117187 35.1725 -34.50328125 34.595 -35 34 C-33.30043137 30.23104921 -31.2676606 28.53243697 -28 26 C-27.34 25.01 -26.68 24.02 -26 23 C-25.34 23 -24.68 23 -24 23 C-24 22.34 -24 21.68 -24 21 C-20.53846154 18 -20.53846154 18 -18 18 C-18 17.34 -18 16.68 -18 16 C-16.390625 14.34375 -16.390625 14.34375 -14.25 12.5 C-13.55390625 11.8915625 -12.8578125 11.283125 -12.140625 10.65625 C-10.15539208 9.12023037 -8.28127955 8.0276034 -6 7 C-6 6.34 -6 5.68 -6 5 C-3.1875 2.3125 -3.1875 2.3125 0 0 Z " fill="#50F3C9" transform="translate(245,114)"/>
<path d="M0 0 C1.18613892 0.00785522 1.18613892 0.00785522 2.39624023 0.01586914 C3.67724609 0.02070312 3.67724609 0.02070312 4.98413086 0.02563477 C5.88196289 0.03401367 6.77979492 0.04239258 7.70483398 0.05102539 C8.6065332 0.05553711 9.50823242 0.06004883 10.43725586 0.06469727 C12.67234712 0.07652315 14.90730835 0.09300319 17.14233398 0.11352539 C18.53750529 2.903868 18.26188561 5.18578511 18.25585938 8.30737305 C18.25578384 9.60857086 18.25570831 10.90976868 18.25563049 12.25039673 C18.25052345 13.6761275 18.24530745 15.10185789 18.23999023 16.52758789 C18.23812546 17.982045 18.23670184 19.43650273 18.23570251 20.89096069 C18.23188204 24.72145315 18.22205575 28.55190776 18.21099854 32.38238525 C18.19897713 36.97706317 18.19437994 41.57175373 18.18854523 46.16644287 C18.17884375 53.14883004 18.15968393 60.13113416 18.14233398 67.11352539 C27.71233398 67.11352539 37.28233398 67.11352539 47.14233398 67.11352539 C48.32915124 70.67397716 48.2392323 73.55160876 48.20483398 77.30102539 C48.19581055 78.57333008 48.18678711 79.84563477 48.17749023 81.15649414 C48.16588867 82.13231445 48.15428711 83.10813477 48.14233398 84.11352539 C16.47286294 85.20979874 16.47286294 85.20979874 5.20483398 85.23852539 C4.47989746 85.24303711 3.75496094 85.24754883 3.00805664 85.25219727 C-1.73320015 85.23799125 -1.73320015 85.23799125 -2.85766602 84.11352539 C-2.95806212 81.53251783 -2.99383871 78.97824642 -2.98706055 76.39672852 C-2.98881287 75.58864243 -2.99056519 74.78055634 -2.99237061 73.94798279 C-2.99678978 71.26355879 -2.99385091 68.57920011 -2.99047852 65.89477539 C-2.99115154 64.0377196 -2.99212155 62.18066389 -2.99337769 60.3236084 C-2.99485475 56.42626102 -2.99269984 52.52893652 -2.98803711 48.6315918 C-2.98233982 43.62418039 -2.98561878 38.61682258 -2.99160957 33.60941315 C-2.99521496 29.77312818 -2.9940767 25.93685602 -2.99148178 22.10057068 C-2.99081245 20.25369765 -2.99164114 18.40682348 -2.99396133 16.55995178 C-2.9964875 13.98337707 -2.99264779 11.40689038 -2.98706055 8.83032227 C-2.98908478 8.05937729 -2.99110901 7.28843231 -2.99319458 6.49412537 C-2.96770299 0.18136179 -2.96770299 0.18136179 0 0 Z " fill="#50F3C8" transform="translate(360.857666015625,82.886474609375)"/>
<path d="M0 0 C0.99 0.33 1.98 0.66 3 1 C3.24955562 5.65862758 3.42968332 10.31327444 3.54931641 14.97705078 C3.59922884 16.55846991 3.66719447 18.13943644 3.75439453 19.71923828 C4.45789359 32.80432086 4.45789359 32.80432086 0.86572266 38.21435547 C-1.63546002 40.72838119 -4.16042569 42.88203728 -7 45 C-8.2989621 46.11656851 -9.59231257 47.23977283 -10.875 48.375 C-11.83019531 49.19097656 -11.83019531 49.19097656 -12.8046875 50.0234375 C-15.64379681 52.57964624 -18.3155947 55.28307162 -21 58 C-32.81809864 69.93276564 -32.81809864 69.93276564 -37.15625 72.0546875 C-39.17719503 72.86116067 -39.17719503 72.86116067 -40 75 C-41.24508396 77.49016793 -42.46716796 77.98686718 -45 79 C-45 79.66 -45 80.32 -45 81 C-46.32 80.67 -47.64 80.34 -49 80 C-51.25275616 47.16841164 -51.25275616 47.16841164 -46.38671875 40.02734375 C-43.80530294 37.2045478 -40.88259716 35.01716597 -37.62841797 33.02148438 C-35.36350529 31.60073555 -33.50255919 29.83038723 -31.5625 28 C-30.37831753 26.99607364 -29.1910806 25.99573253 -28 25 C-27.42378906 24.49597656 -26.84757812 23.99195313 -26.25390625 23.47265625 C-22.2425554 20 -22.2425554 20 -20 20 C-19.7421875 19.40703125 -19.484375 18.8140625 -19.21875 18.203125 C-17.90230105 15.82339035 -16.57419218 14.49021208 -14.5 12.75 C-13.8915625 12.22921875 -13.283125 11.7084375 -12.65625 11.171875 C-11 10 -11 10 -9 10 C-8.7525 9.38125 -8.505 8.7625 -8.25 8.125 C-6.79371361 5.64931313 -5.62187494 5.04874998 -3 4 C-3 3.34 -3 2.68 -3 2 C-2.01 1.34 -1.02 0.68 0 0 Z " fill="#50F3C8" transform="translate(321,112)"/>
<path d="M0 0 C0.99 0.33 1.98 0.66 3 1 C3.02953391 4.91665027 3.04697503 8.83327113 3.0625 12.75 C3.07087891 13.84183594 3.07925781 14.93367188 3.08789062 16.05859375 C3.09770012 19.37420175 3.06277772 22.68499445 3 26 C2.98380615 27.09530029 2.9676123 28.19060059 2.95092773 29.3190918 C2.60990824 37.14569971 2.60990824 37.14569971 -0.22265625 41.11328125 C-1.15980469 41.83902344 -2.09695312 42.56476563 -3.0625 43.3125 C-4.56876953 44.53259766 -4.56876953 44.53259766 -6.10546875 45.77734375 C-7.06066406 46.51082031 -8.01585937 47.24429688 -9 48 C-10.30175533 49.11331075 -11.59461102 50.2371811 -12.875 51.375 C-13.50148437 51.91898438 -14.12796875 52.46296875 -14.7734375 53.0234375 C-17.72144841 55.64044368 -20.60943219 58.31986454 -23.5 61 C-27.66576993 64.86146487 -31.8447404 68.69503679 -36.15625 72.39453125 C-37.5119656 73.57503784 -38.8418279 74.78540103 -40.15625 76.01171875 C-40.8678125 76.66785156 -41.579375 77.32398438 -42.3125 78 C-42.94800781 78.598125 -43.58351562 79.19625 -44.23828125 79.8125 C-45.11033203 80.4003125 -45.11033203 80.4003125 -46 81 C-46.99 80.67 -47.98 80.34 -49 80 C-51.77334946 48.50915019 -51.77334946 48.50915019 -45.9296875 40.89453125 C-42.68564763 37.65415926 -39.01956161 35.07340085 -35.19824219 32.55664062 C-31.53893558 29.96537686 -28.57760458 26.74047671 -25.5 23.5 C-13.28207294 11.11825716 -13.28207294 11.11825716 -8.84765625 8.9453125 C-6.84365422 8.15025156 -6.84365422 8.15025156 -6.0625 6.125 C-4.5972928 3.19458561 -2.71106344 1.78533446 0 0 Z " fill="#50F3C9" transform="translate(254,57)"/>
<path d="M0 0 C1.10589478 0.00616333 1.10589478 0.00616333 2.23413086 0.01245117 C3.0352832 0.01438477 3.83643555 0.01631836 4.66186523 0.01831055 C5.49911133 0.03055664 6.33635742 0.04280273 7.19897461 0.05541992 C8.46064453 0.05638672 8.46064453 0.05638672 9.74780273 0.05737305 C15.99624277 0.10268808 15.99624277 0.10268808 17.13647461 1.24291992 C17.23155282 3.8293103 17.26203836 6.38890552 17.25 8.97558594 C17.25014603 9.78527832 17.25029205 10.5949707 17.2504425 11.42919922 C17.24974315 14.11843501 17.24194971 16.80760241 17.23413086 19.49682617 C17.23226676 21.35627708 17.23084282 23.21572848 17.22984314 25.07518005 C17.22601732 29.97921088 17.21618649 34.88321228 17.20513916 39.78723145 C17.19492642 44.78743085 17.19034581 49.78763498 17.18530273 54.7878418 C17.17456428 64.60621413 17.15748709 74.42456458 17.13647461 84.24291992 C14.73212455 85.44509495 13.45266092 85.2818911 10.78491211 85.12182617 C9.93413086 85.07348633 9.08334961 85.02514648 8.20678711 84.9753418 C7.31733398 84.91926758 6.42788086 84.86319336 5.51147461 84.80541992 C4.61428711 84.75321289 3.71709961 84.70100586 2.79272461 84.6472168 C0.57363449 84.51737642 -1.64502411 84.38240653 -3.86352539 84.24291992 C-3.90979729 73.5860077 -3.94536834 62.92911924 -3.96714973 52.27212715 C-3.97760193 47.3240416 -3.99178722 42.3760246 -4.0144043 37.42797852 C-4.03608162 32.65584511 -4.04808319 27.88377779 -4.05327988 23.11159897 C-4.05698485 21.28787063 -4.06421939 19.46414604 -4.0749855 17.64044571 C-4.0894326 15.0926548 -4.0915062 12.5451395 -4.09057617 9.99731445 C-4.09776672 9.23774445 -4.10495728 8.47817444 -4.11236572 7.69558716 C-4.08393527 0.53236153 -4.08393527 0.53236153 0 0 Z " fill="#4DF3C8" transform="translate(415.863525390625,82.757080078125)"/>
<path d="M0 0 C1.86352539 -0.35644531 1.86352539 -0.35644531 4.09765625 -0.328125 C4.89880859 -0.32296875 5.69996094 -0.3178125 6.52539062 -0.3125 C7.36263672 -0.291875 8.19988281 -0.27125 9.0625 -0.25 C9.90361328 -0.24484375 10.74472656 -0.2396875 11.61132812 -0.234375 C17.84600765 -0.15399235 17.84600765 -0.15399235 19 1 C19.39938517 4.52275765 19.43755701 8.08349486 19.5625 11.625 C19.6049585 12.79385742 19.64741699 13.96271484 19.69116211 15.16699219 C20.38997614 38.09709126 20.08125415 61.0623768 20 84 C16.68794116 84.19592461 13.37534146 84.38032746 10.0625 84.5625 C8.64420898 84.64661133 8.64420898 84.64661133 7.19726562 84.73242188 C6.29814453 84.78076172 5.39902344 84.82910156 4.47265625 84.87890625 C3.22367554 84.94960327 3.22367554 84.94960327 1.94946289 85.02172852 C0 85 0 85 -1 84 C-1.13562902 81.49155637 -1.20724191 79.00902173 -1.23706055 76.49853516 C-1.25017273 75.71316879 -1.26328491 74.92780243 -1.27679443 74.11863708 C-1.31875194 71.50882946 -1.35316354 68.89899086 -1.38671875 66.2890625 C-1.41236047 64.48163659 -1.43814452 62.6742127 -1.46406555 60.86679077 C-1.51711837 57.07203927 -1.56603159 53.27725883 -1.61254883 49.48242188 C-1.6728969 44.61403966 -1.74711483 39.74597793 -1.82492352 34.87784767 C-1.88246757 31.14279016 -1.93079266 27.40765504 -1.976511 23.67243576 C-1.99995382 21.87740881 -2.02671848 20.08242213 -2.05682945 18.28749466 C-2.09790357 15.7784258 -2.12613682 13.2695274 -2.15112305 10.76025391 C-2.16609329 10.01520096 -2.18106354 9.27014801 -2.19648743 8.5025177 C-2.21955163 4.76262076 -2.13269964 3.19904947 0 0 Z " fill="#4BF5C8" transform="translate(699,83)"/>
<path d="M0 0 C1.86352539 -0.35644531 1.86352539 -0.35644531 4.09765625 -0.328125 C4.89880859 -0.32296875 5.69996094 -0.3178125 6.52539062 -0.3125 C7.36263672 -0.291875 8.19988281 -0.27125 9.0625 -0.25 C9.90361328 -0.24484375 10.74472656 -0.2396875 11.61132812 -0.234375 C17.84600765 -0.15399235 17.84600765 -0.15399235 19 1 C19.39938517 4.52275765 19.43755701 8.08349486 19.5625 11.625 C19.6049585 12.79385742 19.64741699 13.96271484 19.69116211 15.16699219 C20.38997614 38.09709126 20.08125415 61.0623768 20 84 C16.68794116 84.19592461 13.37534146 84.38032746 10.0625 84.5625 C8.64420898 84.64661133 8.64420898 84.64661133 7.19726562 84.73242188 C6.29814453 84.78076172 5.39902344 84.82910156 4.47265625 84.87890625 C3.22367554 84.94960327 3.22367554 84.94960327 1.94946289 85.02172852 C0 85 0 85 -1 84 C-1.12495027 81.536507 -1.18602203 79.09963233 -1.20532227 76.63452148 C-1.21522186 75.86384338 -1.22512146 75.09316528 -1.23532104 74.2991333 C-1.26702701 71.73981853 -1.2917292 69.18048517 -1.31640625 66.62109375 C-1.33696794 64.85131841 -1.35796419 63.08154806 -1.37937927 61.31178284 C-1.43468109 56.6445418 -1.48405446 51.97725586 -1.53222656 47.30993652 C-1.58238253 42.55098454 -1.63809934 37.79209809 -1.69335938 33.03320312 C-1.80104008 23.68885802 -1.90246288 14.3444561 -2 5 C-1.34 5 -0.68 5 0 5 C1.55947769 10.82367448 1.04774332 16.84025947 0.9609375 22.8125 C0.92249182 27.23375351 1.01805358 31.52432034 1.52734375 35.91796875 C2.40654342 44.64483953 1.84070855 53.43780136 1.5625 62.1875 C1.50916593 64.01625865 1.45642672 65.84503475 1.40429688 67.67382812 C1.27638895 72.11611633 1.14043171 76.55809079 1 81 C3.31243792 81.02685412 5.6249627 81.04632841 7.9375 81.0625 C9.22527344 81.07410156 10.51304687 81.08570313 11.83984375 81.09765625 C14.86298403 81.36532549 14.86298403 81.36532549 16 80 C16.08841927 78.32053298 16.10689702 76.63733395 16.09765625 74.95556641 C16.09270142 73.33589462 16.09270142 73.33589462 16.08764648 71.6835022 C16.07934814 70.5014621 16.0710498 69.319422 16.0625 68.1015625 C16.05871338 66.88286469 16.05492676 65.66416687 16.05102539 64.40853882 C16.03470471 59.1827989 16.00701652 53.95713653 15.97949219 48.73144531 C15.90742787 33.78378954 15.95245267 18.91585814 17 4 C16.04125977 3.84660156 15.08251953 3.69320312 14.09472656 3.53515625 C11.80794271 3.16927083 9.52115885 2.80338542 7.234375 2.4375 C3.88332154 1.91063669 3.88332154 1.91063669 0 2 C0 2.66 0 3.32 0 4 C-0.66 3.67 -1.32 3.34 -2 3 C-1.34 2.01 -0.68 1.02 0 0 Z " fill="#65E1C3" transform="translate(699,83)"/>
<path d="M0 0 C1.86352539 -0.35644531 1.86352539 -0.35644531 4.09765625 -0.328125 C4.89880859 -0.32296875 5.69996094 -0.3178125 6.52539062 -0.3125 C7.36263672 -0.291875 8.19988281 -0.27125 9.0625 -0.25 C9.90361328 -0.24484375 10.74472656 -0.2396875 11.61132812 -0.234375 C17.84600765 -0.15399235 17.84600765 -0.15399235 19 1 C19.09507821 3.58639038 19.12556376 6.1459856 19.11352539 8.73266602 C19.11367142 9.5423584 19.11381744 10.35205078 19.1139679 11.1862793 C19.11326854 13.87551508 19.1054751 16.56468249 19.09765625 19.25390625 C19.09579215 21.11335716 19.09436821 22.97280856 19.09336853 24.83226013 C19.08954271 29.73629096 19.07971188 34.64029236 19.06866455 39.54431152 C19.05845181 44.54451092 19.05387121 49.54471506 19.04882812 54.54492188 C19.03808967 64.36329421 19.02101248 74.18164466 19 84 C12.73900966 87.13049517 4.99032481 84.36791183 -2 84 C-2 57.6 -2 31.2 -2 4 C-1.34 4 -0.68 4 0 4 C0.12315955 29.02223005 -0.07081312 53.99350522 -1 79 C-0.34 79 0.32 79 1 79 C1 79.99 1 80.98 1 82 C2.75091019 81.91245449 4.50079551 81.80426627 6.25 81.6875 C7.22453125 81.62949219 8.1990625 81.57148438 9.203125 81.51171875 C12.45408554 80.9169201 13.70313505 80.37133983 16 78 C16.41208272 75.45273706 16.56447991 73.3253426 16.54589844 70.7746582 C16.55623611 70.04270233 16.56657379 69.31074646 16.57722473 68.55661011 C16.60671748 66.13777765 16.60815319 63.71977959 16.609375 61.30078125 C16.62435238 59.62353412 16.64107859 57.94630176 16.65948486 56.26908875 C16.70322074 51.85500421 16.72317114 47.44111861 16.73822021 43.02685547 C16.75776895 38.52234095 16.79974138 34.01804201 16.83984375 29.51367188 C16.91521328 20.67584764 16.9654638 11.8380715 17 3 C16.01 3.33 15.02 3.66 14 4 C11.25392224 3.91232913 8.54908492 3.77043265 5.8125 3.5625 C5.06291016 3.51029297 4.31332031 3.45808594 3.54101562 3.40429688 C1.69362918 3.27486216 -0.15324371 3.13813482 -2 3 C-1.34 2.01 -0.68 1.02 0 0 Z " fill="#67DCBE" transform="translate(414,83)"/>
<path d="M0 0 C1.18613892 0.00785522 1.18613892 0.00785522 2.39624023 0.01586914 C3.67724609 0.02070312 3.67724609 0.02070312 4.98413086 0.02563477 C5.88196289 0.03401367 6.77979492 0.04239258 7.70483398 0.05102539 C8.6065332 0.05553711 9.50823242 0.06004883 10.43725586 0.06469727 C12.67234712 0.07652315 14.90730835 0.09300319 17.14233398 0.11352539 C18.5265881 2.88203362 18.26193361 5.11771723 18.25585938 8.21557617 C18.25578384 9.49675323 18.25570831 10.7779303 18.25563049 12.09793091 C18.25052346 13.50156696 18.24530746 14.90520262 18.23999023 16.30883789 C18.23812544 17.74087474 18.23670183 19.17291223 18.23570251 20.60494995 C18.23188217 24.37625893 18.222056 28.14752947 18.21099854 31.91882324 C18.20077404 35.76627075 18.19620267 39.61372446 18.19116211 43.46118164 C18.18043331 51.01198042 18.16336267 58.56274752 18.14233398 66.11352539 C17.48233398 65.78352539 16.82233398 65.45352539 16.14233398 65.11352539 C16.14233398 44.32352539 16.14233398 23.53352539 16.14233398 2.11352539 C13.50233398 2.44352539 10.86233398 2.77352539 8.14233398 3.11352539 C8.14233398 2.45352539 8.14233398 1.79352539 8.14233398 1.11352539 C7.33795898 1.36102539 7.33795898 1.36102539 6.51733398 1.61352539 C4.14233398 2.11352539 4.14233398 2.11352539 -1.85766602 2.11352539 C-1.85766602 28.84352539 -1.85766602 55.57352539 -1.85766602 83.11352539 C0.12233398 82.61852539 0.12233398 82.61852539 2.14233398 82.11352539 C4.86178512 82.01898414 7.54904613 81.97393708 10.26733398 81.98852539 C10.9956543 81.9846582 11.72397461 81.98079102 12.47436523 81.97680664 C17.8889133 81.98681505 17.8889133 81.98681505 20.14233398 83.11352539 C20.63733398 81.62852539 20.63733398 81.62852539 21.14233398 80.11352539 C21.80233398 80.44352539 22.46233398 80.77352539 23.14233398 81.11352539 C30.7595684 82.36503855 38.44951192 82.19536392 46.14233398 82.11352539 C46.14233398 77.49352539 46.14233398 72.87352539 46.14233398 68.11352539 C39.21233398 68.11352539 32.28233398 68.11352539 25.14233398 68.11352539 C25.14233398 67.78352539 25.14233398 67.45352539 25.14233398 67.11352539 C32.40233398 67.11352539 39.66233398 67.11352539 47.14233398 67.11352539 C48.32915124 70.67397716 48.2392323 73.55160876 48.20483398 77.30102539 C48.19581055 78.57333008 48.18678711 79.84563477 48.17749023 81.15649414 C48.16588867 82.13231445 48.15428711 83.10813477 48.14233398 84.11352539 C16.47286294 85.20979874 16.47286294 85.20979874 5.20483398 85.23852539 C4.47989746 85.24303711 3.75496094 85.24754883 3.00805664 85.25219727 C-1.73320015 85.23799125 -1.73320015 85.23799125 -2.85766602 84.11352539 C-2.95806212 81.53251783 -2.99383871 78.97824642 -2.98706055 76.39672852 C-2.98881287 75.58864243 -2.99056519 74.78055634 -2.99237061 73.94798279 C-2.99678978 71.26355879 -2.99385091 68.57920011 -2.99047852 65.89477539 C-2.99115154 64.0377196 -2.99212155 62.18066389 -2.99337769 60.3236084 C-2.99485475 56.42626102 -2.99269984 52.52893652 -2.98803711 48.6315918 C-2.98233982 43.62418039 -2.98561878 38.61682258 -2.99160957 33.60941315 C-2.99521496 29.77312818 -2.9940767 25.93685602 -2.99148178 22.10057068 C-2.99081245 20.25369765 -2.99164114 18.40682348 -2.99396133 16.55995178 C-2.9964875 13.98337707 -2.99264779 11.40689038 -2.98706055 8.83032227 C-2.98908478 8.05937729 -2.99110901 7.28843231 -2.99319458 6.49412537 C-2.96770299 0.18136179 -2.96770299 0.18136179 0 0 Z " fill="#6FD5BD" transform="translate(360.857666015625,82.886474609375)"/>
<path d="M0 0 C0.89589844 -0.01417969 1.79179688 -0.02835937 2.71484375 -0.04296875 C5.0625 0.1875 5.0625 0.1875 7.0625 2.1875 C3.1025 2.1875 -0.8575 2.1875 -4.9375 2.1875 C-4.9375 6.8075 -4.9375 11.4275 -4.9375 16.1875 C-3.60074219 16.15269531 -2.26398437 16.11789063 -0.88671875 16.08203125 C0.86717495 16.05389392 2.62108222 16.0265937 4.375 16 C5.25607422 15.97486328 6.13714844 15.94972656 7.04492188 15.92382812 C8.31625977 15.90932617 8.31625977 15.90932617 9.61328125 15.89453125 C10.78370972 15.87096558 10.78370972 15.87096558 11.9777832 15.84692383 C14.70829041 16.29300154 15.40337511 16.98316365 17.0625 19.1875 C17.46122742 21.90202332 17.46122742 21.90202332 17.49487305 25.21948242 C17.51466721 26.46054245 17.53446136 27.70160248 17.55485535 28.98027039 C17.56162509 30.33450163 17.56807196 31.68873453 17.57421875 33.04296875 C17.59106405 34.42875261 17.60921409 35.81452118 17.62861633 37.20027161 C17.67613938 40.84491192 17.70593344 44.48949023 17.73205566 48.13433838 C17.76184983 51.85465746 17.808384 55.57476284 17.85351562 59.29492188 C17.93957478 66.59234194 18.00690803 73.8897775 18.0625 81.1875 C21.0325 80.6925 21.0325 80.6925 24.0625 80.1875 C24.0625 80.8475 24.0625 81.5075 24.0625 82.1875 C30.66968405 81.75203143 30.66968405 81.75203143 36.0625 78.1875 C36.0625 80.1675 36.0625 82.1475 36.0625 84.1875 C25.6675 84.6825 25.6675 84.6825 15.0625 85.1875 C14.39466804 80.51267626 13.93903351 76.59941736 13.94897461 71.97680664 C13.94905014 70.79611099 13.94912567 69.61541534 13.94920349 68.39894104 C13.95436478 67.14451706 13.95952606 65.89009308 13.96484375 64.59765625 C13.9662587 63.29799423 13.96767365 61.99833221 13.96913147 60.6592865 C13.97292666 57.22506747 13.98273092 53.79089158 13.99383545 50.35668945 C14.00411445 46.84391869 14.00864292 43.33114088 14.01367188 39.81835938 C14.02435624 32.94138688 14.04192833 26.06444996 14.0625 19.1875 C7.4625 18.8575 0.8625 18.5275 -5.9375 18.1875 C-5.958125 15.403125 -5.97875 12.61875 -6 9.75 C-6.009104 8.87158447 -6.01820801 7.99316895 -6.02758789 7.08813477 C-6.03473091 5.12104026 -5.98781893 3.15396379 -5.9375 1.1875 C-4.27188601 -0.47811399 -2.27787295 0.01634055 0 0 Z " fill="#73DBC0" transform="translate(727.9375,82.8125)"/>
<path d="M0 0 C6.65282363 -0.02550903 13.30563449 -0.04293326 19.95849609 -0.05493164 C22.21826651 -0.05993756 24.47803373 -0.06674429 26.73779297 -0.07543945 C29.99968255 -0.08766974 33.26152904 -0.09326587 36.5234375 -0.09765625 C37.52176605 -0.10281754 38.5200946 -0.10797882 39.54867554 -0.11329651 C45.75949904 -0.11378504 51.83362015 0.25577083 58 1 C58 1.33 58 1.66 58 2 C55.69 2 53.38 2 51 2 C50.67 2.66 50.34 3.32 50 4 C49.01 4.33 48.02 4.66 47 5 C47.495 7.97 47.495 7.97 48 11 C47.34 11.33 46.68 11.66 46 12 C46 13.65 46 15.3 46 17 C41.90996141 18.14982602 37.96822949 18.11094256 33.75 18.0625 C33.00492188 18.05798828 32.25984375 18.05347656 31.4921875 18.04882812 C29.6614236 18.03709246 27.83070127 18.0191585 26 18 C25.67 17.34 25.34 16.68 25 16 C33.415 15.505 33.415 15.505 42 15 C42 13.35 42 11.7 42 10 C42.66 10 43.32 10 44 10 C44 8.02 44 6.04 44 4 C22.22 3.505 22.22 3.505 0 3 C0 2.01 0 1.02 0 0 Z " fill="#66E3C5" transform="translate(739,83)"/>
<path d="M0 0 C28.93263641 -0.20638953 28.93263641 -0.20638953 43 1 C43.19386492 3.64551056 43.38038267 6.29117783 43.5625 8.9375 C43.64661133 10.06961914 43.64661133 10.06961914 43.73242188 11.22460938 C43.86176157 13.14745958 43.93516912 15.07389548 44 17 C43 18 43 18 40.31616211 18.11352539 C39.14835205 18.10828857 37.98054199 18.10305176 36.77734375 18.09765625 C35.51728516 18.09443359 34.25722656 18.09121094 32.95898438 18.08789062 C31.61848891 18.07953403 30.27799412 18.07106907 28.9375 18.0625 C27.59310058 18.0574866 26.2486994 18.05292342 24.90429688 18.04882812 C21.60282059 18.03699488 18.30143197 18.02050971 15 18 C15 17.34 15 16.68 15 16 C23.91 16 32.82 16 42 16 C41.67 11.71 41.34 7.42 41 3 C39.576875 3.165 38.15375 3.33 36.6875 3.5 C31.869587 4.05859861 27.20809281 3.95050106 22.36328125 3.78125 C20.41518555 3.71357422 20.41518555 3.71357422 18.42773438 3.64453125 C17.05598919 3.59636535 15.6842444 3.54818812 14.3125 3.5 C12.92903811 3.45177545 11.54557459 3.40359782 10.16210938 3.35546875 C6.77472318 3.23744136 3.38735453 3.11893223 0 3 C0 2.01 0 1.02 0 0 Z " fill="#65E2C6" transform="translate(517,83)"/>
<path d="M0 0 C1.9375 0.375 1.9375 0.375 4 1 C5.5478616 4.0957232 4.83182026 7.26504398 4.5625 10.625 C4.376875 13.05875 4.19125 15.4925 4 18 C-3.92 18.33 -11.84 18.66 -20 19 C-20.33 24.61 -20.66 30.22 -21 36 C-11.43 36 -1.86 36 8 36 C9.06671952 39.20015856 8.94845472 40.88544294 8.5625 44.1875 C8.46066406 45.08855469 8.35882812 45.98960937 8.25390625 46.91796875 C8.17011719 47.60503906 8.08632813 48.29210937 8 49 C7.67 49 7.34 49 7 49 C7 45.37 7 41.74 7 38 C-2.9 38 -12.8 38 -23 38 C-23.185625 34.720625 -23.37125 31.44125 -23.5625 28.0625 C-23.62381104 27.02746338 -23.68512207 25.99242676 -23.74829102 24.92602539 C-23.79139404 24.11641357 -23.83449707 23.30680176 -23.87890625 22.47265625 C-23.9260376 21.64000244 -23.97316895 20.80734863 -24.02172852 19.94946289 C-24 18 -24 18 -23 17 C-21.14825294 16.84213692 -19.2909089 16.74892644 -17.43359375 16.68359375 C-16.30888672 16.64169922 -15.18417969 16.59980469 -14.02539062 16.55664062 C-12.84138672 16.51732422 -11.65738281 16.47800781 -10.4375 16.4375 C-9.24962891 16.39431641 -8.06175781 16.35113281 -6.83789062 16.30664062 C-3.89205216 16.20016454 -0.9461257 16.09815159 2 16 C2 14.02 2 12.04 2 10 C1.34 10 0.68 10 0 10 C1 8 2 6 3 4 C2.34 4 1.68 4 1 4 C0.67 2.68 0.34 1.36 0 0 Z " fill="#61D5BA" transform="translate(553,114)"/>
<path d="M0 0 C6.6 0 13.2 0 20 0 C20 3.69619141 19.74835679 5.08410184 18.34765625 8.31640625 C17.98744385 9.15461914 17.62723145 9.99283203 17.25610352 10.85644531 C16.86221436 11.74944336 16.4683252 12.64244141 16.0625 13.5625 C15.46103149 14.94260254 15.46103149 14.94260254 14.84741211 16.35058594 C11.99429494 22.85135923 9.06502054 29.31691235 6.0625 35.75 C5.49704468 36.9731189 5.49704468 36.9731189 4.92016602 38.22094727 C2.23824729 43.88087635 2.23824729 43.88087635 0 45 C0.40000166 39.09997546 1.0564435 36.54106506 5 32 C6.25556887 28.82078213 6.25556887 28.82078213 7 26 C7.66 26 8.32 26 9 26 C9.12375 25.46375 9.2475 24.9275 9.375 24.375 C9.86303809 22.52045526 10.44519182 20.69061229 11.0625 18.875 C12.1033402 16.18708882 12.1033402 16.18708882 12 14 C12.66 14 13.32 14 14 14 C15.77759876 9.03079316 15.77759876 9.03079316 15 4 C12.87562788 3.80551523 10.75046809 3.61961711 8.625 3.4375 C7.44164062 3.33308594 6.25828125 3.22867188 5.0390625 3.12109375 C2.08101369 2.75846404 2.08101369 2.75846404 0 4 C-0.65555119 6.52733235 -0.65555119 6.52733235 -1 9 C-1.66 9 -2.32 9 -3 9 C-2.67 9.99 -2.34 10.98 -2 12 C-3.25 15.125 -3.25 15.125 -5 18 C-5.99 18.33 -6.98 18.66 -8 19 C-5.99712886 12.25862885 -3.24984652 6.23619197 0 0 Z " fill="#67E1C3" transform="translate(830,83)"/>
<path d="M0 0 C1.5 1.1875 1.5 1.1875 3 3 C3.1875 5.6875 3.1875 5.6875 3 8 C3.66 8 4.32 8 5 8 C5.22786458 10.05078125 5.45572917 12.1015625 5.68359375 14.15234375 C5.81886614 16.01140229 5.81886614 16.01140229 7 17 C7.04063832 18.66617115 7.042721 20.33388095 7 22 C7.66 22 8.32 22 9 22 C9.2475 23.093125 9.495 24.18625 9.75 25.3125 C10.8182529 29.59298192 12.3051989 33.64592564 13.8515625 37.7734375 C15.49708282 42.39656602 16.92168994 47.08323584 18.3371582 51.78125 C19.16308484 55.16213511 19.16308484 55.16213511 21 58 C22.48638992 58.15655027 23.97949127 58.25066943 25.47265625 58.31640625 C26.82133789 58.37924805 26.82133789 58.37924805 28.19726562 58.44335938 C29.14279297 58.48267578 30.08832031 58.52199219 31.0625 58.5625 C32.01189453 58.60568359 32.96128906 58.64886719 33.93945312 58.69335938 C36.29281353 58.79979276 38.64628354 58.90181008 41 59 C41.33 57.35 41.66 55.7 42 54 C43 57 43 57 42.19921875 59.66796875 C39.59954637 62.42463733 38.97992395 62.36283019 35.33203125 62.48828125 C33.49155452 62.45505965 31.65140668 62.3954486 29.8125 62.3125 C28.87212891 62.28994141 27.93175781 62.26738281 26.96289062 62.24414062 C24.64032527 62.18519227 22.32096224 62.10297785 20 62 C16.23191102 54.12867952 13.51957418 45.98207587 10.79101562 37.70922852 C10.0069421 35.33353414 9.21498586 32.96058116 8.421875 30.58789062 C0 5.27972091 0 5.27972091 0 0 Z " fill="#67DCBE" transform="translate(442,106)"/>
<path d="M0 0 C0.33 0 0.66 0 1 0 C1 24.42 1 48.84 1 74 C-2.52320639 75.76160319 -6.49257153 75.35422306 -10.375 75.4375 C-11.23867188 75.48326172 -12.10234375 75.52902344 -12.9921875 75.57617188 C-15.46703196 75.62009273 -17.59266156 75.58289477 -20 75 C-24 70.53753754 -24 70.53753754 -24 67 C-23.34 67 -22.68 67 -22 67 C-22 67.99 -22 68.98 -22 70 C-21.34 70 -20.68 70 -20 70 C-20 70.66 -20 71.32 -20 72 C-17.35319096 71.88660796 -14.70822482 71.75987127 -12.0625 71.625 C-11.30775391 71.5940625 -10.55300781 71.563125 -9.77539062 71.53125 C-7.84492605 71.4273685 -5.92057919 71.22104386 -4 71 C-3.67 70.34 -3.34 69.68 -3 69 C-2.34 69 -1.68 69 -1 69 C-1.00222061 68.15031143 -1.00444122 67.30062286 -1.00672913 66.42518616 C-1.02673014 58.43463275 -1.04197316 50.4440877 -1.05181217 42.45351505 C-1.05704046 38.34505715 -1.06413713 34.23661986 -1.07543945 30.12817383 C-1.08627025 26.16653172 -1.09227724 22.20490948 -1.09487724 18.24325371 C-1.09673114 16.72851689 -1.1003511 15.21378121 -1.10573006 13.69905281 C-1.11294307 11.58458187 -1.11399083 9.47019406 -1.11352539 7.35571289 C-1.115746 6.14992081 -1.11796661 4.94412872 -1.12025452 3.70179749 C-1 1 -1 1 0 0 Z " fill="#66D7B7" transform="translate(689,93)"/>
<path d="M0 0 C9.57 0 19.14 0 29 0 C30.79505494 5.38516481 30 11.32353788 30 17 C20.1 17 10.2 17 0 17 C0 16.67 0 16.34 0 16 C1.22976563 15.95101562 2.45953125 15.90203125 3.7265625 15.8515625 C5.35939566 15.77648971 6.99220712 15.70094385 8.625 15.625 C9.43324219 15.5940625 10.24148438 15.563125 11.07421875 15.53125 C15.71838314 15.3047054 19.62693856 14.7407332 24 13 C24.93786082 7.94990405 24.93786082 7.94990405 24 3 C21.14493951 2.04831317 19.09062718 1.8099054 16.11328125 1.68359375 C15.17548828 1.64169922 14.23769531 1.59980469 13.27148438 1.55664062 C12.29501953 1.51732422 11.31855469 1.47800781 10.3125 1.4375 C9.32443359 1.39431641 8.33636719 1.35113281 7.31835938 1.30664062 C4.87904454 1.20058346 2.43962887 1.09852286 0 1 C0 0.67 0 0.34 0 0 Z " fill="#56F0C4" transform="translate(586,150)"/>
<path d="M0 0 C1.12894876 0.93274109 2.25300876 1.87140122 3.375 2.8125 C4.00148438 3.33457031 4.62796875 3.85664062 5.2734375 4.39453125 C7 6 7 6 9 9 C8.401875 8.690625 7.80375 8.38125 7.1875 8.0625 C4.91043228 6.89790296 4.91043228 6.89790296 2 6 C-0.54631609 14.79247205 0.36363129 24.867711 0.21044922 33.94067383 C0.15381335 36.58977607 0.07206996 39.23846902 -0.03564453 41.88598633 C-1.37089697 58.8838836 -1.37089697 58.8838836 5.615448 73.582901 C8.81774507 76.53237664 12.08473897 79.04236949 16 81 C16 81.66 16 82.32 16 83 C18.86724686 82.42655063 19.8614515 82.1385485 22 80 C22 83 22 83 20.5 84.6875 C20.005 85.120625 19.51 85.55375 19 86 C10.70212502 82.02418364 3.35124797 76.23651812 -1 68 C-3.62027935 57.75830436 -2.97921964 46.91018654 -2.67877197 36.42285156 C-2.60644374 33.3320304 -2.60268331 30.24280996 -2.60210609 27.15126228 C-2.60059685 20.77718059 -2.5471184 14.40390019 -2.38916016 8.03173828 C-2.36310699 6.91195587 -2.33705383 5.79217346 -2.31021118 4.63845825 C-2 2 -2 2 0 0 Z " fill="#71DCC3" transform="translate(265,50)"/>
<path d="M0 0 C0.99 0.33 1.98 0.66 3 1 C2.01 1.495 2.01 1.495 1 2 C1 28.73 1 55.46 1 83 C9.58 83 18.16 83 27 83 C27 83.33 27 83.66 27 84 C13.635 84.495 13.635 84.495 0 85 C-1.21298094 81.36105718 -1.13968566 78.0275718 -1.12939453 74.23974609 C-1.13202301 73.05643959 -1.13202301 73.05643959 -1.13470459 71.84922791 C-1.13910759 69.24060876 -1.13619112 66.63205734 -1.1328125 64.0234375 C-1.13348585 62.21408068 -1.13445614 60.40472394 -1.13571167 58.59536743 C-1.13718643 54.80412942 -1.1350407 51.01291496 -1.13037109 47.22167969 C-1.1246658 42.35108764 -1.12795927 37.4805506 -1.13394356 32.60996056 C-1.13754821 28.87490419 -1.13641117 25.13986098 -1.13381577 21.40480423 C-1.13314665 19.60817076 -1.13397437 17.81153612 -1.13629532 16.01490402 C-1.13882116 13.51039184 -1.13498262 11.00597024 -1.12939453 8.50146484 C-1.13141876 7.75236343 -1.13344299 7.00326202 -1.13552856 6.23146057 C-1.11426435 1.11426435 -1.11426435 1.11426435 0 0 Z " fill="#71D9C0" transform="translate(511,83)"/>
<path d="M0 0 C0.33 0 0.66 0 1 0 C1.33 20.46 1.66 40.92 2 62 C4.97 61.505 4.97 61.505 8 61 C8 61.66 8 62.32 8 63 C14.60718405 62.56453143 14.60718405 62.56453143 20 59 C20 60.98 20 62.96 20 65 C9.605 65.495 9.605 65.495 -1 66 C-2 62 -2 62 -1 60 C-0.8800592 58.09091814 -0.82268712 56.17777752 -0.79467773 54.26513672 C-0.7647599 52.46349564 -0.7647599 52.46349564 -0.73423767 50.62545776 C-0.71752518 49.32335358 -0.70081268 48.02124939 -0.68359375 46.6796875 C-0.66302375 45.33732462 -0.64202727 43.99496821 -0.62062073 42.65261841 C-0.56540469 39.11811562 -0.51599342 35.58355443 -0.46777344 32.0489502 C-0.41755496 28.44273678 -0.36187071 24.83660828 -0.30664062 21.23046875 C-0.19906483 14.15371951 -0.09761858 7.07689416 0 0 Z " fill="#5FE8C4" transform="translate(744,102)"/>
<path d="M0 0 C1.65 0 3.3 0 5 0 C3.68 0.33 2.36 0.66 1 1 C1.33 18.49 1.66 35.98 2 54 C1.34 54 0.68 54 0 54 C-6.61538462 44.07692308 -6.61538462 44.07692308 -6 39 C-3.98332607 41.56667591 -2.41791563 44.06553114 -1 47 C-1.00222061 46.4406778 -1.00444122 45.88135559 -1.00672913 45.30508423 C-1.02880582 39.49799232 -1.04391661 33.69091228 -1.05493164 27.88378906 C-1.05996891 25.71483883 -1.06679891 23.545892 -1.07543945 21.37695312 C-1.08753151 18.26431437 -1.09323428 15.1517204 -1.09765625 12.0390625 C-1.10281754 11.065065 -1.10797882 10.0910675 -1.11329651 9.08755493 C-1.11337204 8.18677216 -1.11344757 7.28598938 -1.11352539 6.35791016 C-1.115746 5.56293121 -1.11796661 4.76795227 -1.12025452 3.94888306 C-1 2 -1 2 0 0 Z " fill="#6ADCC1" transform="translate(670,83)"/>
<path d="M0 0 C2.64 0 5.28 0 8 0 C9.27628072 3.59157811 8.70711823 5.76090048 7.5234375 9.33203125 C7.18441406 10.37174072 6.84539062 11.4114502 6.49609375 12.48266602 C6.12613281 13.58151123 5.75617188 14.68035645 5.375 15.8125 C5.00761719 16.93003662 4.64023437 18.04757324 4.26171875 19.19897461 C3.18427945 22.46933368 2.0934844 25.73497695 1 29 C0.44974954 30.66120305 -0.09982638 32.32262984 -0.6484375 33.984375 C-1.75427102 37.32678173 -2.87205724 40.66497694 -4 44 C-4.33 44 -4.66 44 -5 44 C-5.30305914 38.14085669 -4.69783228 35.27836751 -2 30 C-2.16507646 27.42459787 -2.16507646 27.42459787 -3 25 C-3.5 22.5 -3.5 22.5 -4 20 C-1.625 18.9375 -1.625 18.9375 1 18 C1.66 18.33 2.32 18.66 3 19 C3.12375 17.948125 3.2475 16.89625 3.375 15.8125 C4 12 4 12 5.125 9.3125 C6.11341176 6.70026891 5.95398577 5.57576158 5 3 C3.35 2.67 1.7 2.34 0 2 C0 1.34 0 0.68 0 0 Z " fill="#4FEFC7" transform="translate(500,83)"/>
<path d="M0 0 C3.63 0 7.26 0 11 0 C11 0.66 11 1.32 11 2 C9.741875 2.04125 8.48375 2.0825 7.1875 2.125 C4.98942904 2.3524495 4.98942904 2.3524495 3 3 C-0.25241228 7.33654971 -1.00824321 12.74952288 -2 18 C-2.66 18 -3.32 18 -4 18 C-4.33 20.64 -4.66 23.28 -5 26 C-5.66 26 -6.32 26 -7 26 C-6.9175 27.11375 -6.835 28.2275 -6.75 29.375 C-6.73103437 34.67589239 -8.52002595 39.3568369 -11 44 C-11.99 44.495 -11.99 44.495 -13 45 C-11.65420756 37.05347212 -9.45965045 29.40177233 -7.11376953 21.70288086 C-6.49626764 19.67524438 -5.886288 17.64545547 -5.27734375 15.61523438 C-3.67994524 10.32375045 -2.0555444 5.13886101 0 0 Z " fill="#6BE4C4" transform="translate(488,83)"/>
<path d="M0 0 C7.26 0 14.52 0 22 0 C23.18681726 3.56045177 23.09689832 6.43808337 23.0625 10.1875 C23.05347656 11.45980469 23.04445313 12.73210937 23.03515625 14.04296875 C23.02355469 15.01878906 23.01195312 15.99460938 23 17 C18.46122739 17.16725986 13.92228756 17.32785453 9.38305664 17.48217773 C7.8377441 17.5356662 6.29249433 17.59100068 4.74731445 17.64819336 C2.53089949 17.72991433 0.31434616 17.8050717 -1.90234375 17.87890625 C-2.94454323 17.91945885 -2.94454323 17.91945885 -4.00779724 17.96083069 C-5.67109776 18.01301108 -7.33592339 18.01185107 -9 18 C-9.33 17.67 -9.66 17.34 -10 17 C-12.18292774 16.76518307 -14.37203174 16.58636677 -16.5625 16.4375 C-17.76003906 16.35371094 -18.95757812 16.26992187 -20.19140625 16.18359375 C-21.58166016 16.09271484 -21.58166016 16.09271484 -23 16 C-23 15.67 -23 15.34 -23 15 C-20.37493198 14.97309156 -17.75013827 14.95320596 -15.125 14.9375 C-14.37863281 14.92912109 -13.63226563 14.92074219 -12.86328125 14.91210938 C-7.2265625 14.88671875 -7.2265625 14.88671875 -5 16 C-4.67 15.01 -4.34 14.02 -4 13 C-3.34 13.33 -2.68 13.66 -2 14 C5.61723441 15.25151316 13.30717793 15.08183853 21 15 C21 10.38 21 5.76 21 1 C14.07 1 7.14 1 0 1 C0 0.67 0 0.34 0 0 Z " fill="#68E0C0" transform="translate(386,150)"/>
<path d="M0 0 C0.99 0.33 1.98 0.66 3 1 C3 8.92 3 16.84 3 25 C2.34 24.67 1.68 24.34 1 24 C1 17.07 1 10.14 1 3 C-3.88432172 5.30976896 -3.88432172 5.30976896 -4.9375 7.9375 C-6.52844628 11.02580749 -9.09893063 12.13893663 -12 14 C-15.51210911 16.82010456 -18.84379065 19.78657839 -22 23 C-22.66 22.67 -23.32 22.34 -24 22 C-21.54921238 19.65863048 -19.08817454 17.32832922 -16.625 15 C-15.57699219 13.99839844 -15.57699219 13.99839844 -14.5078125 12.9765625 C-13.50234375 12.02910156 -13.50234375 12.02910156 -12.4765625 11.0625 C-11.85861816 10.47597656 -11.24067383 9.88945313 -10.60400391 9.28515625 C-9 8 -9 8 -7 8 C-6.6596875 7.13375 -6.6596875 7.13375 -6.3125 6.25 C-4.63315609 3.37112473 -2.77209171 1.82552381 0 0 Z " fill="#67D2B8" transform="translate(254,57)"/>
<path d="M0 0 C1.32 0 2.64 0 4 0 C4 0.66 4 1.32 4 2 C3.01 2.33 2.02 2.66 1 3 C0.85862124 8.99849808 0.85862124 8.99849808 1.5625 14.9375 C1.96302695 17.74118863 1.87583404 19.66066205 1.53125 22.43359375 C0.89572789 28.34131701 0.88841061 34.18896013 0.9375 40.125 C0.94201172 41.176875 0.94652344 42.22875 0.95117188 43.3125 C0.96281989 45.87506221 0.97917447 48.43749877 1 51 C0.67 51 0.34 51 0 51 C-2.06371237 34.54557905 -3.54178238 17.50589549 -1 1 C-0.67 0.67 -0.34 0.34 0 0 Z " fill="#64E9CA" transform="translate(567,83)"/>
<path d="M0 0 C0.66 0 1.32 0 2 0 C1.67 8.25 1.34 16.5 1 25 C-3.19611479 23.9509713 -3.53956702 23.764615 -6 20.625 C-10.79779562 14.85084772 -16.41383344 9.98994188 -22 5 C-20.68 4.67 -19.36 4.34 -18 4 C-17.34 5.32 -16.68 6.64 -16 8 C-15.34 8 -14.68 8 -14 8 C-13.67 8.99 -13.34 9.98 -13 11 C-9.49705129 12.71567661 -9.49705129 12.71567661 -6 14 C-6 15.32 -6 16.64 -6 18 C-5.360625 18.103125 -4.72125 18.20625 -4.0625 18.3125 C-3.381875 18.539375 -2.70125 18.76625 -2 19 C-1.67 19.99 -1.34 20.98 -1 22 C-0.67 14.74 -0.34 7.48 0 0 Z " fill="#6BE1C5" transform="translate(263,174)"/>
<path d="M0 0 C5.28 0 10.56 0 16 0 C16.185625 2.619375 16.37125 5.23875 16.5625 7.9375 C16.62381104 8.7637085 16.68512207 9.58991699 16.74829102 10.44116211 C16.87155111 12.29190666 16.937603 14.14620522 17 16 C16 17 16 17 13.31616211 17.11352539 C12.14835205 17.10828857 10.98054199 17.10305176 9.77734375 17.09765625 C8.51728516 17.09443359 7.25722656 17.09121094 5.95898438 17.08789062 C4.61848891 17.07953403 3.27799412 17.07106907 1.9375 17.0625 C0.59310058 17.0574866 -0.7513006 17.05292342 -2.09570312 17.04882812 C-5.39717941 17.03699488 -8.69856803 17.02050971 -12 17 C-12 16.34 -12 15.68 -12 15 C-3.09 15 5.82 15 15 15 C15 10.38 15 5.76 15 1 C10.05 1 5.1 1 0 1 C0 0.67 0 0.34 0 0 Z " fill="#73E1C8" transform="translate(544,84)"/>
<path d="M0 0 C0.66 0 1.32 0 2 0 C1.55433483 2.5997135 1.06688541 4.85263264 -0.02685547 7.26245117 C-1.18919401 10.53222088 -1.22697001 13.14678413 -1.1953125 16.61328125 C-1.18886719 17.86044922 -1.18242188 19.10761719 -1.17578125 20.39257812 C-1.15902344 21.68615234 -1.14226563 22.97972656 -1.125 24.3125 C-1.11597656 25.62541016 -1.10695313 26.93832031 -1.09765625 28.29101562 C-1.07411797 31.52752913 -1.0412352 34.76367149 -1 38 C-1.66 38 -2.32 38 -3 38 C-3 27.11 -3 16.22 -3 5 C-2.34 5 -1.68 5 -1 5 C-0.67 3.35 -0.34 1.7 0 0 Z " fill="#64CCB2" transform="translate(828,128)"/>
<path d="M0 0 C0.99 0.33 1.98 0.66 3 1 C1.61625149 7.55950014 -0.06788256 13.95692674 -2 20.375 C-2.39058594 21.70724609 -2.39058594 21.70724609 -2.7890625 23.06640625 C-3.04429687 23.91847656 -3.29953125 24.77054688 -3.5625 25.6484375 C-3.79066406 26.41333496 -4.01882813 27.17823242 -4.25390625 27.96630859 C-5 30 -5 30 -7 33 C-7 30.36 -7 27.72 -7 25 C-6.34 25 -5.68 25 -5 25 C-4.87882812 23.90300781 -4.75765625 22.80601562 -4.6328125 21.67578125 C-4.46390637 20.22131177 -4.29461519 18.76688696 -4.125 17.3125 C-4.04636719 16.59126953 -3.96773438 15.87003906 -3.88671875 15.12695312 C-3.4103949 11.11484068 -2.73699858 7.70024488 -1 4 C-0.34 4 0.32 4 1 4 C0.67 2.68 0.34 1.36 0 0 Z " fill="#62EAC5" transform="translate(492,127)"/>
<path d="M0 0 C0.99 0.33 1.98 0.66 3 1 C2.34 1 1.68 1 1 1 C1.16226074 1.71244873 1.32452148 2.42489746 1.49169922 3.15893555 C1.99865922 5.99250592 2.12931882 8.58148632 2.1328125 11.45703125 C2.13410156 12.48763672 2.13539063 13.51824219 2.13671875 14.58007812 C2.13285156 15.64677734 2.12898437 16.71347656 2.125 17.8125 C2.12886719 18.86759766 2.13273438 19.92269531 2.13671875 21.00976562 C2.12954245 26.76874874 1.86553838 32.30530702 1 38 C0.67 38 0.34 38 0 38 C-0.77117103 33.21751431 -1.1283127 28.63148967 -1.1328125 23.7890625 C-1.13376923 23.13545746 -1.13472595 22.48185242 -1.13571167 21.80844116 C-1.13638654 20.44211733 -1.13458113 19.07579017 -1.13037109 17.70947266 C-1.12496039 15.60962888 -1.13036597 13.50999394 -1.13671875 11.41015625 C-1.13542969 10.09144531 -1.13414062 8.77273437 -1.1328125 7.4140625 C-1.13168457 6.2070166 -1.13055664 4.9999707 -1.12939453 3.75634766 C-1 1 -1 1 0 0 Z " fill="#48E3C5" transform="translate(762,100)"/>
<path d="M0 0 C0.33 0 0.66 0 1 0 C1.71266189 4.1895881 1.89241794 7.82721061 1 12 C-3.34192436 17.5728823 -8.90741588 21.51374986 -15 25 C-14.649375 24.236875 -14.29875 23.47375 -13.9375 22.6875 C-12.67639116 19.95240621 -12.67639116 19.95240621 -14 17 C-11.28817788 14.39665076 -10.10866187 14.00543309 -6.25 13.8125 C-5.1775 13.874375 -4.105 13.93625 -3 14 C-1.20724134 10.88089144 -0.65709282 8.32317572 -0.375 4.75 C-0.30023438 3.85796875 -0.22546875 2.9659375 -0.1484375 2.046875 C-0.09945312 1.37140625 -0.05046875 0.6959375 0 0 Z " fill="#5EECC8" transform="translate(255,83)"/>
<path d="M0 0 C0 3 0 3 -1.375 4.6875 C-3 6 -3 6 -5 6 C-4.36078035 8.47627099 -4.36078035 8.47627099 -3 11 C-1.34183216 11.68753301 0.32459336 12.35561283 2 13 C2.144375 13.598125 2.28875 14.19625 2.4375 14.8125 C3.20545357 17.7989861 5.07091316 18.92281313 7.43359375 20.76171875 C9.45006321 22.35578563 11.21895183 24.15044998 13 26 C12.67 26.99 12.34 27.98 12 29 C11.37351563 28.36191406 10.74703125 27.72382813 10.1015625 27.06640625 C9.28429687 26.24011719 8.46703125 25.41382813 7.625 24.5625 C6.81289062 23.73878906 6.00078125 22.91507813 5.1640625 22.06640625 C3.17651485 19.96565328 3.17651485 19.96565328 1 19 C1 18.34 1 17.68 1 17 C0.34 17 -0.32 17 -1 17 C-2.7265625 15.25 -2.7265625 15.25 -4.625 13 C-5.25664062 12.2575 -5.88828125 11.515 -6.5390625 10.75 C-7.26222656 9.88375 -7.26222656 9.88375 -8 9 C-6.1144852 4.71640327 -3.64034299 2.84896408 0 0 Z " fill="#6DE2C6" transform="translate(218,139)"/>
<path d="M0 0 C-0.309375 0.5775 -0.61875 1.155 -0.9375 1.75 C-3.12740827 6.38745281 -3.12062046 10.71039793 -3.0625 15.7734375 C-3.05871338 16.5336319 -3.05492676 17.29382629 -3.05102539 18.07705688 C-3.03481649 21.31234584 -3.00704822 24.5475055 -2.97949219 27.78271484 C-2.90065848 37.91699535 -3.08212811 47.8972627 -4 58 C-4.33 58 -4.66 58 -5 58 C-5.0694429 50.73311247 -5.12278189 43.46629622 -5.15543652 36.19914436 C-5.17110744 32.82486394 -5.19237093 29.45081013 -5.22631836 26.07666016 C-5.2625736 22.19948252 -5.27969728 18.32262828 -5.29296875 14.4453125 C-5.30845261 13.23070343 -5.32393646 12.01609436 -5.33988953 10.76467896 C-5.34022942 9.08316238 -5.34022942 9.08316238 -5.34057617 7.36767578 C-5.34723801 6.37728302 -5.35389984 5.38689026 -5.36076355 4.3664856 C-5.24171158 3.58554535 -5.12265961 2.8046051 -5 2 C-2 0 -2 0 0 0 Z " fill="#5DE7C7" transform="translate(516,83)"/>
<path d="M0 0 C0.33 0 0.66 0 1 0 C1 2.97 1 5.94 1 9 C-8.9 9 -18.8 9 -29 9 C-29 8.67 -29 8.34 -29 8 C-27.77023437 7.95101562 -26.54046875 7.90203125 -25.2734375 7.8515625 C-23.64060434 7.77648971 -22.00779288 7.70094385 -20.375 7.625 C-19.56675781 7.5940625 -18.75851562 7.563125 -17.92578125 7.53125 C-9.7556529 7.17970593 -9.7556529 7.17970593 -3 3 C-2.34 3.33 -1.68 3.66 -1 4 C-0.67 2.68 -0.34 1.36 0 0 Z " fill="#65E6C3" transform="translate(615,158)"/>
<path d="M0 0 C-1.59887554 1.48488441 -3.20428905 2.96273145 -4.8125 4.4375 C-5.70582031 5.26121094 -6.59914063 6.08492187 -7.51953125 6.93359375 C-10 9 -10 9 -13 10 C-13.309375 10.639375 -13.61875 11.27875 -13.9375 11.9375 C-15.2342338 14.45468915 -16.4221737 14.96886948 -19 16 C-19 16.66 -19 17.32 -19 18 C-20.32 17.67 -21.64 17.34 -23 17 C-21.1875 15 -21.1875 15 -19 13 C-18.01 13 -17.02 13 -16 13 C-15.67 11.02 -15.34 9.04 -15 7 C-12.92446352 6.4465236 -11.15634036 6 -9 6 C-9 5.01 -9 4.02 -9 3 C-8.01 3 -7.02 3 -6 3 C-6.33 2.01 -6.66 1.02 -7 0 C-3.98968256 -0.93423645 -3.13349732 -1.04449911 0 0 Z " fill="#64ECC9" transform="translate(295,175)"/>
<path d="M0 0 C0.33 0 0.66 0 1 0 C1.33 2.64 1.66 5.28 2 8 C-1.52320639 9.76160319 -5.49257153 9.35422306 -9.375 9.4375 C-10.23867188 9.48326172 -11.10234375 9.52902344 -11.9921875 9.57617188 C-14.46703196 9.62009273 -16.59266156 9.58289477 -19 9 C-23 4.53753754 -23 4.53753754 -23 1 C-22.34 1 -21.68 1 -21 1 C-21 1.99 -21 2.98 -21 4 C-20.34 4 -19.68 4 -19 4 C-19 4.66 -19 5.32 -19 6 C-16.35319096 5.88660796 -13.70822482 5.75987127 -11.0625 5.625 C-10.30775391 5.5940625 -9.55300781 5.563125 -8.77539062 5.53125 C-6.84492605 5.4273685 -4.92057919 5.22104386 -3 5 C-2.67 4.34 -2.34 3.68 -2 3 C-1.34 3 -0.68 3 0 3 C0 2.01 0 1.02 0 0 Z " fill="#68E6C6" transform="translate(688,159)"/>
<path d="M0 0 C0.66 0.33 1.32 0.66 2 1 C-0.81448461 7.45166472 -6.75450362 12.87725181 -13 16 C-13 15.34 -13 14.68 -13 14 C-13.66 13.67 -14.32 13.34 -15 13 C-14.01 12.4225 -13.02 11.845 -12 11.25 C-11.01 10.5075 -10.02 9.765 -9 9 C-9 7.68 -9 6.36 -9 5 C-6.09399739 3.74335022 -4.20395416 3 -1 3 C-0.67 2.01 -0.34 1.02 0 0 Z " fill="#66ECC9" transform="translate(322,144)"/>
<path d="M0 0 C1.9375 0.375 1.9375 0.375 4 1 C5.5478616 4.0957232 4.83182026 7.26504398 4.5625 10.625 C4.376875 13.05875 4.19125 15.4925 4 18 C-3.59 18.33 -11.18 18.66 -19 19 C-18.67 18.34 -18.34 17.68 -18 17 C-8.1 16.505 -8.1 16.505 2 16 C2 14.02 2 12.04 2 10 C1.34 10 0.68 10 0 10 C1 8 2 6 3 4 C2.34 4 1.68 4 1 4 C0.67 2.68 0.34 1.36 0 0 Z " fill="#7AE2C6" transform="translate(553,114)"/>
<path d="M0 0 C0.33 0 0.66 0 1 0 C1.02686553 1.97909398 1.04633375 3.95828971 1.0625 5.9375 C1.07410156 7.03964844 1.08570313 8.14179687 1.09765625 9.27734375 C1 12 1 12 0 13 C-2.14558827 13.08775605 -4.29404421 13.10695219 -6.44140625 13.09765625 C-7.74658203 13.09443359 -9.05175781 13.09121094 -10.39648438 13.08789062 C-11.7851569 13.07953401 -13.17382877 13.07106905 -14.5625 13.0625 C-15.95507656 13.05748666 -17.34765481 13.05292347 -18.74023438 13.04882812 C-22.16017451 13.03699442 -25.5800925 13.01905831 -29 13 C-29 17.29 -29 21.58 -29 26 C-29.33 26 -29.66 26 -30 26 C-30.33 21.38 -30.66 16.76 -31 12 C-28.12981559 10.56490779 -25.66456277 10.88841494 -22.4609375 10.90234375 C-21.15898438 10.90556641 -19.85703125 10.90878906 -18.515625 10.91210938 C-17.13541601 10.92046534 -15.75520768 10.92893029 -14.375 10.9375 C-12.98698074 10.94251499 -11.59895978 10.9470779 -10.2109375 10.95117188 C-6.80724868 10.96299024 -3.40364561 10.97946566 0 11 C0 7.37 0 3.74 0 0 Z " fill="#71D9BE" transform="translate(615,88)"/>
<path d="M0 0 C0.66 0 1.32 0 2 0 C2 11.88 2 23.76 2 36 C-0.40435006 37.20217503 -1.68381369 37.03897118 -4.3515625 36.87890625 C-5.20234375 36.83056641 -6.053125 36.78222656 -6.9296875 36.73242188 C-7.81914063 36.67634766 -8.70859375 36.62027344 -9.625 36.5625 C-10.5221875 36.51029297 -11.419375 36.45808594 -12.34375 36.40429688 C-14.56284012 36.2744565 -16.78149871 36.13948661 -19 36 C-18.67 35.01 -18.34 34.02 -18 33 C-18 33.66 -18 34.32 -18 35 C-12.06 35 -6.12 35 0 35 C0 23.45 0 11.9 0 0 Z " fill="#6CDDC0" transform="translate(641,131)"/>
<path d="M0 0 C0.66 0 1.32 0 2 0 C3.29647753 4.94925152 3.14718234 9.86144007 3.125 14.9375 C3.12886719 15.81857422 3.13273438 16.69964844 3.13671875 17.60742188 C3.12986032 22.18542071 2.93490801 26.49611775 2 31 C1.67 31 1.34 31 1 31 C0.67 20.77 0.34 10.54 0 0 Z " fill="#5BDEBF" transform="translate(697,88)"/>
<path d="M0 0 C2.31 0.33 4.62 0.66 7 1 C2.17917294 6.96260189 -3.22494276 11.96679794 -9 17 C-9 15 -9 13 -9 11 C-7.865625 10.566875 -6.73125 10.13375 -5.5625 9.6875 C-4.386875 9.130625 -3.21125 8.57375 -2 8 C-1.67 7.01 -1.34 6.02 -1 5 C-0.34 4.34 0.32 3.68 1 3 C0.67 2.01 0.34 1.02 0 0 Z " fill="#67EFCD" transform="translate(298,114)"/>
<path d="M0 0 C1.65 1.32 3.3 2.64 5 4 C3.57646476 7.33136597 1.8664687 9.27664757 -0.875 11.625 C-1.55304688 12.21539062 -2.23109375 12.80578125 -2.9296875 13.4140625 C-4.88666469 14.91318087 -6.76048537 15.98569068 -9 17 C-8.67 15.68 -8.34 14.36 -8 13 C-8.66 12.67 -9.32 12.34 -10 12 C-8.35 12 -6.7 12 -5 12 C-5 11.34 -5 10.68 -5 10 C-4.34 10 -3.68 10 -3 10 C-3.33 8.68 -3.66 7.36 -4 6 C-1 6 -1 6 2 7 C1.34 4.69 0.68 2.38 0 0 Z " fill="#67E3C4" transform="translate(314,98)"/>
<path d="M0 0 C1.95364977 2.93047465 2.7511658 5.08947168 3.7265625 8.4375 C4.0359375 9.49710938 4.3453125 10.55671875 4.6640625 11.6484375 C4.98117187 12.75445312 5.29828125 13.86046875 5.625 15 C5.94984375 16.10601562 6.2746875 17.21203125 6.609375 18.3515625 C9 26.60825893 9 26.60825893 9 30 C8.01 29.67 7.02 29.34 6 29 C4.15368114 24.00407838 3.41029416 18.81785739 2.5078125 13.58203125 C2.02427179 10.83429347 2.02427179 10.83429347 0.875 7.625 C-0.02699215 4.91902355 -0.16651765 2.83080012 0 0 Z " fill="#64D3B9" transform="translate(457,87)"/>
<path d="M0 0 C2.0429646 2.97858318 1.67076839 5.52928258 1.59765625 9.08984375 C1.57445312 10.98089844 1.57445312 10.98089844 1.55078125 12.91015625 C1.34765625 15.96484375 1.34765625 15.96484375 0.34765625 16.96484375 C-1.2140712 17.05169978 -2.77963719 17.07186594 -4.34375 17.0625 C-5.28798828 17.05927734 -6.23222656 17.05605469 -7.20507812 17.05273438 C-8.69491211 17.04016602 -8.69491211 17.04016602 -10.21484375 17.02734375 C-11.21193359 17.02283203 -12.20902344 17.01832031 -13.23632812 17.01367188 C-15.70839224 17.00184382 -18.18033893 16.98536224 -20.65234375 16.96484375 C-20.65234375 16.63484375 -20.65234375 16.30484375 -20.65234375 15.96484375 C-14.05234375 15.96484375 -7.45234375 15.96484375 -0.65234375 15.96484375 C-0.65234375 11.34484375 -0.65234375 6.72484375 -0.65234375 1.96484375 C-3.62234375 1.46984375 -3.62234375 1.46984375 -6.65234375 0.96484375 C-6.65234375 0.63484375 -6.65234375 0.30484375 -6.65234375 -0.03515625 C-2.17897261 -1.3650774 -2.17897261 -1.3650774 0 0 Z " fill="#6FDDC2" transform="translate(611.65234375,115.03515625)"/>
<path d="M0 0 C0.33 0.99 0.66 1.98 1 3 C-0.4375 5.6875 -0.4375 5.6875 -2 8 C-4.77117304 7.85919445 -7.54182641 7.71256882 -10.3125 7.5625 C-11.49102539 7.50352539 -11.49102539 7.50352539 -12.69335938 7.44335938 C-13.45068359 7.40146484 -14.20800781 7.35957031 -14.98828125 7.31640625 C-15.68477783 7.27974854 -16.38127441 7.24309082 -17.09887695 7.20532227 C-19 7 -19 7 -22 6 C-21.67 5.34 -21.34 4.68 -21 4 C-14.4 4.33 -7.8 4.66 -1 5 C-0.67 3.35 -0.34 1.7 0 0 Z " fill="#69E3C5" transform="translate(484,160)"/>
<path d="M0 0 C0.33 0 0.66 0 1 0 C1 2.64 1 5.28 1 8 C2.29417847 7.93099487 2.29417847 7.93099487 3.61450195 7.8605957 C6.81766067 7.6972331 10.02107969 7.54786819 13.2253418 7.40795898 C14.61167719 7.34455307 15.99776978 7.27558284 17.38354492 7.20092773 C19.37606194 7.09455545 21.36969982 7.00987774 23.36328125 6.92578125 C24.56251221 6.86817627 25.76174316 6.81057129 26.99731445 6.7512207 C30 7 30 7 33 10 C22.11 9.67 11.22 9.34 0 9 C0 6.03 0 3.06 0 0 Z " fill="#60EDC6" transform="translate(512,157)"/>
<path d="M0 0 C0.99 0.33 1.98 0.66 3 1 C3 1.66 3 2.32 3 3 C3.86625 3.37125 3.86625 3.37125 4.75 3.75 C7.32939979 5.18299988 9.06121592 6.78424676 11 9 C11 9.66 11 10.32 11 11 C10.01 11.33 9.02 11.66 8 12 C7.566875 11.38125 7.13375 10.7625 6.6875 10.125 C5.00259517 7.7802755 5.00259517 7.7802755 2 6 C2 5.01 2 4.02 2 3 C0.02 3.99 -1.96 4.98 -4 6 C-2.84826645 3.53199953 -1.95216435 1.95216435 0 0 Z " fill="#6DDEC3" transform="translate(245,114)"/>
<path d="M0 0 C2.64 0 5.28 0 8 0 C9.14184472 3.3747102 8.84408845 5.39433064 7.78515625 8.765625 C7.51123047 9.65507813 7.23730469 10.54453125 6.95507812 11.4609375 C6.66052734 12.38132812 6.36597656 13.30171875 6.0625 14.25 C5.77181641 15.18585938 5.48113281 16.12171875 5.18164062 17.0859375 C4.46343503 19.3936145 3.73596262 21.69793682 3 24 C2.67 24 2.34 24 2 24 C2.31613179 19.29072642 2.81505067 15.07600728 4.625 10.6875 C5.99077405 7.02474232 6.13543328 6.42900851 5 3 C3.35 2.67 1.7 2.34 0 2 C0 1.34 0 0.68 0 0 Z " fill="#74D8BF" transform="translate(500,83)"/>
<path d="M0 0 C0.66 0.33 1.32 0.66 2 1 C-0.25506029 5.51012059 -2.78830085 7.32719092 -7 10 C-10.51273 12.81913363 -13.8439107 15.78670063 -17 19 C-17.66 18.67 -18.32 18.34 -19 18 C-16.54921238 15.65863048 -14.08817454 13.32832922 -11.625 11 C-10.57699219 9.99839844 -10.57699219 9.99839844 -9.5078125 8.9765625 C-8.50234375 8.02910156 -8.50234375 8.02910156 -7.4765625 7.0625 C-6.85861816 6.47597656 -6.24067383 5.88945313 -5.60400391 5.28515625 C-4 4 -4 4 -2 4 C-1.34 2.68 -0.68 1.36 0 0 Z " fill="#70DFC4" transform="translate(249,61)"/>
<path d="M0 0 C3.22773574 3.76449889 5.61193007 7.70525067 7.8125 12.125 C8.29879883 13.05505859 8.29879883 13.05505859 8.79492188 14.00390625 C9.61180818 15.63068197 10.31430348 17.31372518 11 19 C10.67 19.99 10.34 20.98 10 22 C6.26844842 18.87031158 5.63316936 16.74877018 5 12 C4.34 11.67 3.68 11.34 3 11 C2.59270772 8.67843403 2.25561323 6.3431213 2 4 C1.34 4 0.68 4 0 4 C0 2.68 0 1.36 0 0 Z " fill="#6CE1C5" transform="translate(647,90)"/>
<path d="M0 0 C4.17062284 3.40913272 7.62851366 6.78564207 11 11 C13.2704295 13.07793656 15.61733139 15.0523692 18 17 C17.34 17.33 16.68 17.66 16 18 C15.34 17.67 14.68 17.34 14 17 C14 16.34 14 15.68 14 15 C12.88625 14.9690625 12.88625 14.9690625 11.75 14.9375 C8.23923843 13.74064946 7.65044029 11.99104631 6.046875 8.77734375 C4.54628859 6.22970638 2.30909855 4.79596554 0 3 C0 2.01 0 1.02 0 0 Z " fill="#6FDDC1" transform="translate(296,80)"/>
<path d="M0 0 C6.510703 5.47490934 12.74987827 11.23223578 19 17 C18.01 17.33 17.02 17.66 16 18 C15.67 17.34 15.34 16.68 15 16 C14.071875 15.8453125 14.071875 15.8453125 13.125 15.6875 C10.04278067 14.69031139 9.65947694 12.78555057 8 10 C5.93685076 7.85891869 3.80833659 5.80857664 1.64453125 3.76953125 C0 2 0 2 0 0 Z " fill="#6ADCC3" transform="translate(277,62)"/>
<path d="M0 0 C0.66 0 1.32 0 2 0 C4.77842595 2.77842595 5.94471208 4.78366581 6.125 8.75 C6.08375 9.4925 6.0425 10.235 6 11 C6.66 11 7.32 11 8 11 C11.10096154 16.45769231 11.10096154 16.45769231 10.58984375 19.203125 C10.39519531 19.79609375 10.20054687 20.3890625 10 21 C8.51219708 18.44218125 7.03466662 15.87929734 5.5625 13.3125 C5.14162109 12.59126953 4.72074219 11.87003906 4.28710938 11.12695312 C2.18393206 7.44218648 0.46609532 4.29655145 0 0 Z " fill="#74E3C5" transform="translate(645,122)"/>
<path d="M0 0 C0.99 0.33 1.98 0.66 3 1 C2.67 6.61 2.34 12.22 2 18 C0.68 18 -0.64 18 -2 18 C-1.505 16.515 -1.505 16.515 -1 15 C-0.77281504 12.43365139 -0.58391816 9.88321893 -0.4375 7.3125 C-0.39431641 6.61060547 -0.35113281 5.90871094 -0.30664062 5.18554688 C-0.2008264 3.45724794 -0.09993419 1.7286489 0 0 Z " fill="#64E4C4" transform="translate(584,132)"/>
<path d="M0 0 C0.99 0.495 0.99 0.495 2 1 C2.16783262 4.43744412 2.33406544 7.87496378 2.5 11.3125 C2.54769531 12.28896484 2.59539062 13.26542969 2.64453125 14.27148438 C2.68964844 15.20927734 2.73476562 16.14707031 2.78125 17.11328125 C2.82314453 17.97735596 2.86503906 18.84143066 2.90820312 19.73168945 C2.97922401 21.48662304 3 23.24362992 3 25 C2.01 24.67 1.02 24.34 0 24 C0 16.08 0 8.16 0 0 Z " fill="#61DDBA" transform="translate(205,113)"/>
<path d="M0 0 C6.65050424 -0.24991456 12.56986533 0.26044666 19 2 C19 2.33 19 2.66 19 3 C13.72 3 8.44 3 3 3 C2.67 3.66 2.34 4.32 2 5 C1.34 5 0.68 5 0 5 C0 4.34 0 3.68 0 3 C-0.99 2.67 -1.98 2.34 -3 2 C-2.01 2 -1.02 2 0 2 C0 1.34 0 0.68 0 0 Z " fill="#66EEC7" transform="translate(589,83)"/>
<path d="M0 0 C0.66 0 1.32 0 2 0 C2.33 1.65 2.66 3.3 3 5 C3.66 5 4.32 5 5 5 C4.67 6.32 4.34 7.64 4 9 C3.67 8.67 3.34 8.34 3 8 C3 10.64 3 13.28 3 16 C2.67 15.01 2.34 14.02 2 13 C1.34 13 0.68 13 0 13 C0 8.71 0 4.42 0 0 Z " fill="#5EE2C6" transform="translate(640,113)"/>
<path d="M0 0 C0 3 0 3 -1.9375 5 C-2.618125 5.66 -3.29875 6.32 -4 7 C-4.33 7.99 -4.66 8.98 -5 10 C-10.22222222 13 -10.22222222 13 -13 13 C-13 13.99 -13 14.98 -13 16 C-13.99 15.67 -14.98 15.34 -16 15 C-15.34 14.67 -14.68 14.34 -14 14 C-14 13.34 -14 12.68 -14 12 C-10.53846154 9 -10.53846154 9 -8 9 C-8 8.34 -8 7.68 -8 7 C-6.25 5.2734375 -6.25 5.2734375 -4 3.375 C-3.2575 2.74335937 -2.515 2.11171875 -1.75 1.4609375 C-1.1725 0.97882813 -0.595 0.49671875 0 0 Z " fill="#70DFC2" transform="translate(235,123)"/>
<path d="M0 0 C-0.53109375 0.45890625 -1.0621875 0.9178125 -1.609375 1.390625 C-6.1052501 5.29279373 -6.1052501 5.29279373 -10.375 9.4375 C-12 11 -12 11 -14 11 C-14 10.01 -14 9.02 -14 8 C-13.01 7.67 -12.02 7.34 -11 7 C-10.67 6.34 -10.34 5.68 -10 5 C-10.66 4.67 -11.32 4.34 -12 4 C-10.35 4 -8.7 4 -7 4 C-6.814375 3.0409375 -6.814375 3.0409375 -6.625 2.0625 C-6.41875 1.381875 -6.2125 0.70125 -6 0 C-3.50907189 -1.24546405 -2.58919267 -0.7767578 0 0 Z " fill="#6BE8C8" transform="translate(224,124)"/>
<path d="M0 0 C0.33 0 0.66 0 1 0 C1 4.95 1 9.9 1 15 C1.66 15 2.32 15 3 15 C2.25 22.75 2.25 22.75 0 25 C0 16.75 0 8.5 0 0 Z " fill="#6BE9C7" transform="translate(272,163)"/>
<path d="M0 0 C2.43847451 0.11397544 4.87513174 0.24070974 7.3125 0.375 C8.00279297 0.4059375 8.69308594 0.436875 9.40429688 0.46875 C13.06990789 0.68124919 14.87900792 0.91933861 18 3 C13.85340627 4.19799449 10.00630953 3.8896192 5.75 3.5625 C5.00492187 3.51029297 4.25984375 3.45808594 3.4921875 3.40429688 C1.66105139 3.2751783 -0.16953813 3.13834886 -2 3 C-1.34 2.01 -0.68 1.02 0 0 Z " fill="#6BE1C3" transform="translate(414,83)"/>
<path d="M0 0 C0.33 0 0.66 0 1 0 C1.33 4.29 1.66 8.58 2 13 C4.97 13.33 7.94 13.66 11 14 C7 16 7 16 4 16 C4 16.66 4 17.32 4 18 C3.01 17.67 2.02 17.34 1 17 C-0.18681726 13.43954823 -0.09689832 10.56191663 -0.0625 6.8125 C-0.05347656 5.54019531 -0.04445313 4.26789063 -0.03515625 2.95703125 C-0.02355469 1.98121094 -0.01195312 1.00539063 0 0 Z " fill="#60E5C5" transform="translate(584,101)"/>
<path d="M0 0 C2 3 2 3 3.5 6.0625 C4.82567342 9.03112476 4.82567342 9.03112476 7 11 C6.67 11.99 6.34 12.98 6 14 C5.01 14 4.02 14 3 14 C-0.44419134 4.58997722 -0.44419134 4.58997722 0 0 Z " fill="#62DFBE" transform="translate(811,104)"/>
<path d="M0 0 C0.66 0 1.32 0 2 0 C1.67 8.25 1.34 16.5 1 25 C-0.32 24.67 -1.64 24.34 -3 24 C-3.33 23.01 -3.66 22.02 -4 21 C-3.01 21.33 -2.02 21.66 -1 22 C-0.67 14.74 -0.34 7.48 0 0 Z " fill="#68DFB7" transform="translate(263,174)"/>
<path d="M0 0 C9.57 0 19.14 0 29 0 C29.33 0.99 29.66 1.98 30 3 C29.29786377 2.84152588 28.59572754 2.68305176 27.87231445 2.51977539 C24.89552459 1.98109408 22.06516197 1.79208274 19.04296875 1.68359375 C17.93115234 1.64169922 16.81933594 1.59980469 15.67382812 1.55664062 C14.52333984 1.51732422 13.37285156 1.47800781 12.1875 1.4375 C11.01767578 1.39431641 9.84785156 1.35113281 8.64257812 1.30664062 C5.76182969 1.20081721 2.88099877 1.09873175 0 1 C0 0.67 0 0.34 0 0 Z " fill="#66D1B7" transform="translate(586,150)"/>
<path d="M0 0 C1.06577303 3.19731908 0.98944609 3.83675201 0.07421875 6.90625 C-0.14556641 7.65003906 -0.36535156 8.39382812 -0.59179688 9.16015625 C-0.82962891 9.93230469 -1.06746094 10.70445312 -1.3125 11.5 C-1.53873047 12.27214844 -1.76496094 13.04429687 -1.99804688 13.83984375 C-3.05289339 17.34789239 -3.94060127 19.9109019 -6 23 C-6 20.36 -6 17.72 -6 15 C-5.34 15 -4.68 15 -4 15 C-3.86722656 14.28457031 -3.73445313 13.56914062 -3.59765625 12.83203125 C-3.01226465 10.05811678 -2.26841556 7.39700725 -1.4375 4.6875 C-1.16808594 3.80449219 -0.89867187 2.92148438 -0.62109375 2.01171875 C-0.41613281 1.34785156 -0.21117187 0.68398437 0 0 Z " fill="#6BE0C3" transform="translate(491,137)"/>
<path d="M0 0 C0.33 0 0.66 0 1 0 C1.19294408 4.82360189 0.75747614 8.49646738 -1 13 C-1.66 13 -2.32 13 -3 13 C-5.60018816 9.09971775 -5.15085514 5.52565431 -5 1 C-4.67 1 -4.34 1 -4 1 C-3.34 2.98 -2.68 4.96 -2 7 C-1.34 4.69 -0.68 2.38 0 0 Z " fill="#68E5C3" transform="translate(474,128)"/>
<path d="M0 0 C1.9375 0.375 1.9375 0.375 4 1 C5.50416548 4.00833096 4.60839737 6.34961578 4.0625 9.625 C3.86785156 10.81351563 3.67320312 12.00203125 3.47265625 13.2265625 C3.31667969 14.14179688 3.16070313 15.05703125 3 16 C2.67 16 2.34 16 2 16 C2 14.02 2 12.04 2 10 C1.34 10 0.68 10 0 10 C1 8 2 6 3 4 C2.34 4 1.68 4 1 4 C0.67 2.68 0.34 1.36 0 0 Z " fill="#60E4C6" transform="translate(553,114)"/>
<path d="M0 0 C0.99 0.33 1.98 0.66 3 1 C3 2.98 3 4.96 3 7 C2.34 6.34 1.68 5.68 1 5 C-0.98 5.99 -0.98 5.99 -3 7 C-3.99 6.34 -4.98 5.68 -6 5 C-5.01 4.67 -4.02 4.34 -3 4 C-3 3.34 -3 2.68 -3 2 C-2.01 1.34 -1.02 0.68 0 0 Z " fill="#72E0C4" transform="translate(321,112)"/>
<path d="M0 0 C0.33 0 0.66 0 1 0 C1.16894443 1.74978157 1.33506309 3.49983612 1.5 5.25 C1.5928125 6.22453125 1.685625 7.1990625 1.78125 8.203125 C1.95800168 10.46302153 2 12.73320193 2 15 C-1.3 15 -4.6 15 -8 15 C-8 14.67 -8 14.34 -8 14 C-5.36 13.67 -2.72 13.34 0 13 C0 8.71 0 4.42 0 0 Z " fill="#6EE7CA" transform="translate(559,152)"/>
<path d="M0 0 C0.66 0.66 1.32 1.32 2 2 C-1.3 2 -4.6 2 -8 2 C-8 2.66 -8 3.32 -8 4 C-10.31 3.67 -12.62 3.34 -15 3 C-15 2.34 -15 1.68 -15 1 C-9.96390209 0.29317924 -5.09889842 -0.30593391 0 0 Z " fill="#5AEFCE" transform="translate(599,129)"/>
<path d="M0 0 C0.66 0 1.32 0 2 0 C-1.07517084 11.52164009 -1.07517084 11.52164009 -3 17 C-3.33 17 -3.66 17 -4 17 C-4.48736475 10.29873464 -3.07708804 5.93438408 0 0 Z " fill="#68E1BF" transform="translate(499,110)"/>
<path d="M0 0 C1.45742463 -0.08096803 2.91612807 -0.13917774 4.375 -0.1875 C5.18710937 -0.22230469 5.99921875 -0.25710937 6.8359375 -0.29296875 C7.55007813 -0.19628906 8.26421875 -0.09960938 9 0 C9.66 0.99 10.32 1.98 11 3 C10.34 3 9.68 3 9 3 C8.67 3.66 8.34 4.32 8 5 C8 4.34 8 3.68 8 3 C5.69 3 3.38 3 1 3 C0.67 2.01 0.34 1.02 0 0 Z " fill="#64E1C2" transform="translate(679,83)"/>
<path d="M0 0 C0.66 0.66 1.32 1.32 2 2 C0.02 2.99 0.02 2.99 -2 4 C-2 4.66 -2 5.32 -2 6 C-4 7.33333333 -6 8.66666667 -8 10 C-8 10.66 -8 11.32 -8 12 C-9.32 11.67 -10.64 11.34 -12 11 C-10.54712339 9.66072279 -9.08752741 8.32873153 -7.625 7 C-6.81289063 6.2575 -6.00078125 5.515 -5.1640625 4.75 C-3 3 -3 3 -1 3 C-0.67 2.01 -0.34 1.02 0 0 Z " fill="#7CE3CA" transform="translate(313,119)"/>
<path d="M0 0 C1.97625073 2.9643761 3.29886906 5.78787746 4.6875 9.0625 C5.14511719 10.12597656 5.60273437 11.18945312 6.07421875 12.28515625 C6.37972656 13.18105469 6.68523438 14.07695313 7 15 C6.67 15.66 6.34 16.32 6 17 C3 12.375 3 12.375 3 9 C2.34 9 1.68 9 1 9 C0.67 6.03 0.34 3.06 0 0 Z " fill="#6CDDBC" transform="translate(804,87)"/>
<path d="M0 0 C0.66 1.32 1.32 2.64 2 4 C-0.40435006 5.20217503 -1.68381369 5.03897118 -4.3515625 4.87890625 C-5.20234375 4.83056641 -6.053125 4.78222656 -6.9296875 4.73242188 C-7.81914063 4.67634766 -8.70859375 4.62027344 -9.625 4.5625 C-10.5221875 4.51029297 -11.419375 4.45808594 -12.34375 4.40429688 C-14.56284012 4.2744565 -16.78149871 4.13948661 -19 4 C-18.67 3.01 -18.34 2.02 -18 1 C-18 1.66 -18 2.32 -18 3 C-12.06 3 -6.12 3 0 3 C0 2.01 0 1.02 0 0 Z " fill="#84DEC7" transform="translate(641,163)"/>
<path d="M0 0 C0.66 0.33 1.32 0.66 2 1 C-0.97 3.64 -3.94 6.28 -7 9 C-7 7 -7 5 -7 3 C-4.69631264 1.93347808 -2.35981813 0.93578995 0 0 Z " fill="#6AE7C6" transform="translate(296,122)"/>
<path d="M0 0 C0.99 0.33 1.98 0.66 3 1 C2.67 5.62 2.34 10.24 2 15 C1.34 14.67 0.68 14.34 0 14 C0.020625 12.96875 0.04125 11.9375 0.0625 10.875 C0.09699163 7.06694411 0.09699163 7.06694411 -0.5625 3.625 C-0.706875 2.75875 -0.85125 1.8925 -1 1 C-0.67 0.67 -0.34 0.34 0 0 Z " fill="#5BE4C2" transform="translate(613,84)"/>
<path d="M0 0 C3.63 0 7.26 0 11 0 C11 0.66 11 1.32 11 2 C9.95199219 2.07347656 9.95199219 2.07347656 8.8828125 2.1484375 C7.97273438 2.22320312 7.06265625 2.29796875 6.125 2.375 C5.22007812 2.44460937 4.31515625 2.51421875 3.3828125 2.5859375 C0.82058097 2.79568132 0.82058097 2.79568132 -1 5 C-0.67 3.35 -0.34 1.7 0 0 Z " fill="#70D6C1" transform="translate(488,83)"/>
<path d="M0 0 C0.99 0.33 1.98 0.66 3 1 C1.71034824 2.37562854 0.37310707 3.70766393 -1 5 C-1.66 5 -2.32 5 -3 5 C-3 5.66 -3 6.32 -3 7 C-4.32 6.67 -5.64 6.34 -7 6 C-5.1875 4 -5.1875 4 -3 2 C-2.01 2 -1.02 2 0 2 C0 1.34 0 0.68 0 0 Z " fill="#72D7BF" transform="translate(279,186)"/>
<path d="M0 0 C0.66 0 1.32 0 2 0 C2 0.99 2 1.98 2 3 C2.66 3.33 3.32 3.66 4 4 C0.26562152 4.87867729 -3.16774573 5.08912219 -7 5 C-7 4.34 -7 3.68 -7 3 C-4.69 2.34 -2.38 1.68 0 1 C0 0.67 0 0.34 0 0 Z " fill="#72E6C6" transform="translate(823,163)"/>
<path d="M0 0 C3.3 0 6.6 0 10 0 C10 1.32 10 2.64 10 4 C9.34 4.66 8.68 5.32 8 6 C8 4.68 8 3.36 8 2 C7.05125 2.04125 6.1025 2.0825 5.125 2.125 C2 2 2 2 0 0 Z " fill="#72D3BD" transform="translate(840,83)"/>
<path d="M0 0 C0.33 1.32 0.66 2.64 1 4 C0.195625 4.45375 -0.60875 4.9075 -1.4375 5.375 C-4.08856572 6.74725665 -4.08856572 6.74725665 -5 9 C-5.99 8.67 -6.98 8.34 -8 8 C-5.36 5.36 -2.72 2.72 0 0 Z " fill="#6CDFC2" transform="translate(229,80)"/>
<path d="M0 0 C0.33 0 0.66 0 1 0 C1 1.98 1 3.96 1 6 C0.01 5.67 -0.98 5.34 -2 5 C-3.72795352 4.93197033 -5.45835365 4.91504355 -7.1875 4.9375 C-8.08855469 4.94652344 -8.98960937 4.95554688 -9.91796875 4.96484375 C-10.94857422 4.98224609 -10.94857422 4.98224609 -12 5 C-12 4.67 -12 4.34 -12 4 C-11.38511719 3.96261719 -10.77023437 3.92523438 -10.13671875 3.88671875 C-9.32847656 3.82097656 -8.52023437 3.75523437 -7.6875 3.6875 C-6.88699219 3.62949219 -6.08648438 3.57148438 -5.26171875 3.51171875 C-2.62476049 2.91510125 -1.74451753 2.00216935 0 0 Z " fill="#61DFB9" transform="translate(763,161)"/>
<path d="M0 0 C0.66 0.33 1.32 0.66 2 1 C2 3.97 2 6.94 2 10 C-0.11180592 7.42910583 -1.66306057 5.36939433 -2 2 C-1.34 1.34 -0.68 0.68 0 0 Z " fill="#63E9C4" transform="translate(805,129)"/>
<path d="M0 0 C2.52349243 3.12432397 4.27256146 6.38060496 6 10 C5.34 10.66 4.68 11.32 4 12 C-0.57142857 4.71428571 -0.57142857 4.71428571 0 0 Z " fill="#6EE5C4" transform="translate(664,122)"/>
<path d="M0 0 C-3.3 2.97 -6.6 5.94 -10 9 C-10.33 8.01 -10.66 7.02 -11 6 C-10.360625 5.566875 -9.72125 5.13375 -9.0625 4.6875 C-6.73253997 3.08760823 -6.73253997 3.08760823 -6 0 C-3.42525708 -0.99667468 -2.51072708 -1.25536354 0 0 Z " fill="#70E5C8" transform="translate(235,114)"/>
<path d="M0 0 C3.0916909 2.52956528 3.90931332 5.22454612 5 9 C4.34 9 3.68 9 3 9 C1.2856382 7.04072937 -0.38405168 5.04119788 -2 3 C-1.34 3 -0.68 3 0 3 C0 2.01 0 1.02 0 0 Z " fill="#61E2C2" transform="translate(658,112)"/>
<path d="M0 0 C1.32 0 2.64 0 4 0 C4 0.66 4 1.32 4 2 C3.01 2.33 2.02 2.66 1 3 C0.67 7.29 0.34 11.58 0 16 C-0.33 16 -0.66 16 -1 16 C-1.02685095 13.52076199 -1.04676547 11.0418116 -1.0625 8.5625 C-1.07506836 7.50192383 -1.07506836 7.50192383 -1.08789062 6.41992188 C-1.09653588 4.61306441 -1.05220011 2.80612397 -1 1 C-0.67 0.67 -0.34 0.34 0 0 Z " fill="#6FDDBF" transform="translate(567,83)"/>
<path d="M0 0 C1.34313399 0.64669414 2.67391178 1.31903578 4 2 C4.886875 2.433125 5.77375 2.86625 6.6875 3.3125 C9 5 9 5 9.8125 7.6875 C9.874375 8.450625 9.93625 9.21375 10 10 C2.51708428 3.84965831 2.51708428 3.84965831 0 0 Z " fill="#76E6C9" transform="translate(231,168)"/>
<path d="M0 0 C3.80489745 1.49478114 5.66190835 3.69442214 8 7 C8.33 7.99 8.66 8.98 9 10 C8.01 10.495 8.01 10.495 7 11 C6.401875 9.906875 5.80375 8.81375 5.1875 7.6875 C3.70305032 5.07254416 2.25011298 3.02510168 0 1 C0 0.67 0 0.34 0 0 Z " fill="#66D7B7" transform="translate(256,125)"/>
<path d="M0 0 C2.5 1 2.5 1 5 3 C5.46837899 5.79374292 5.23424505 8.14221036 5 11 C2.77174356 8.77174356 2.30760631 7.34238372 1.375 4.375 C1.11460937 3.55773437 0.85421875 2.74046875 0.5859375 1.8984375 C0.39257812 1.27195312 0.19921875 0.64546875 0 0 Z " fill="#68E4C3" transform="translate(798,119)"/>
<path d="M0 0 C0.99 0.33 1.98 0.66 3 1 C1.35 2.98 -0.3 4.96 -2 7 C-2.66 6.67 -3.32 6.34 -4 6 C-3.67 5.01 -3.34 4.02 -3 3 C-3.66 2.67 -4.32 2.34 -5 2 C-3.35 2 -1.7 2 0 2 C0 1.34 0 0.68 0 0 Z " fill="#6AEBCA" transform="translate(309,108)"/>
<path d="M0 0 C2.05078125 0.03255208 4.1015625 0.06510417 6.15234375 0.09765625 C6.15234375 0.75765625 6.15234375 1.41765625 6.15234375 2.09765625 C3.84234375 2.09765625 1.53234375 2.09765625 -0.84765625 2.09765625 C-1.17765625 3.41765625 -1.50765625 4.73765625 -1.84765625 6.09765625 C-2.22984392 4.44150968 -2.56160727 2.77308601 -2.84765625 1.09765625 C-1.84765625 0.09765625 -1.84765625 0.09765625 0 0 Z " fill="#69D1B3" transform="translate(436.84765625,82.90234375)"/>
<path d="M0 0 C0 2 0 4 0 6 C-0.66 6 -1.32 6 -2 6 C-2.33 6.66 -2.66 7.32 -3 8 C-3.99 8 -4.98 8 -6 8 C-4.55746343 4.63408134 -2.66735273 2.48952921 0 0 Z " fill="#64E0C4" transform="translate(278,151)"/>
<path d="M0 0 C0.99 0.33 1.98 0.66 3 1 C1.8572081 2.16964602 0.71068285 3.33564556 -0.4375 4.5 C-1.07558594 5.1496875 -1.71367187 5.799375 -2.37109375 6.46875 C-4 8 -4 8 -5 8 C-5 6.35 -5 4.7 -5 3 C-4.01 3.33 -3.02 3.66 -2 4 C-2 3.34 -2 2.68 -2 2 C-1.34 2 -0.68 2 0 2 C0 1.34 0 0.68 0 0 Z " fill="#6DE9C7" transform="translate(306,160)"/>
<path d="M0 0 C0.66 0 1.32 0 2 0 C1.44271087 3.34373475 0.64826111 6.03312999 -1 9 C-1.66 9 -2.32 9 -3 9 C-3 7.68 -3 6.36 -3 5 C-2.34 5 -1.68 5 -1 5 C-0.67 3.35 -0.34 1.7 0 0 Z " fill="#65E0C4" transform="translate(828,128)"/>
<path d="M0 0 C0.66 0 1.32 0 2 0 C4.8670615 2.8670615 6 4.91591468 6 9 C3 8 3 8 1.3125 5.0625 C0 2 0 2 0 0 Z " fill="#67E7C3" transform="translate(645,122)"/>
<path d="M0 0 C0.33 0 0.66 0 1 0 C1.10807131 1.93627769 1.1856225 3.87427756 1.25 5.8125 C1.29640625 6.89144531 1.3428125 7.97039062 1.390625 9.08203125 C1 12 1 12 -1.015625 13.88671875 C-1.67046875 14.25410156 -2.3253125 14.62148437 -3 15 C-2.125 11.125 -2.125 11.125 -1 10 C-0.76712992 8.31816052 -0.58735834 6.6287584 -0.4375 4.9375 C-0.31181641 3.55884766 -0.31181641 3.55884766 -0.18359375 2.15234375 C-0.12300781 1.44207031 -0.06242188 0.73179688 0 0 Z " fill="#63D9BA" transform="translate(255,83)"/>
<path d="M0 0 C3.67420866 0.30618405 4.78135513 0.75771784 7.3125 3.5625 C8.1478125 4.7690625 8.1478125 4.7690625 9 6 C7.68 5.67 6.36 5.34 5 5 C5 4.34 5 3.68 5 3 C3.35 2.67 1.7 2.34 0 2 C0 1.34 0 0.68 0 0 Z " fill="#64E5C3" transform="translate(305,92)"/>
<path d="M0 0 C2 1 2 1 3 2 C4.34747084 2.23075082 5.70377565 2.41153063 7.0625 2.5625 C8.361875 2.706875 9.66125 2.85125 11 3 C11 3.33 11 3.66 11 4 C9.54263913 4.19491452 8.08405407 4.38069358 6.625 4.5625 C5.81289063 4.66691406 5.00078125 4.77132812 4.1640625 4.87890625 C2 5 2 5 0 4 C0 2.68 0 1.36 0 0 Z " fill="#5AEDC6" transform="translate(546,162)"/>
<path d="M0 0 C2.31 0 4.62 0 7 0 C7.33 0.99 7.66 1.98 8 3 C2.25 3.125 2.25 3.125 0 2 C0 1.34 0 0.68 0 0 Z " fill="#5CF5C4" transform="translate(808,165)"/>
<path d="M0 0 C1.2065625 0.0309375 1.2065625 0.0309375 2.4375 0.0625 C1.7259375 0.5575 1.7259375 0.5575 1 1.0625 C-1.42041615 4.16063267 -1.24448917 7.18276792 -1.5625 11.0625 C-1.8925 11.0625 -2.2225 11.0625 -2.5625 11.0625 C-2.75656478 9.41742782 -2.94257935 7.77140406 -3.125 6.125 C-3.22941406 5.20847656 -3.33382812 4.29195312 -3.44140625 3.34765625 C-3.48136719 2.59355469 -3.52132812 1.83945313 -3.5625 1.0625 C-2.5625 0.0625 -2.5625 0.0625 0 0 Z " fill="#58E4C0" transform="translate(532.5625,130.9375)"/>
<path d="M0 0 C0.66 0 1.32 0 2 0 C2 0.66 2 1.32 2 2 C2.66 2 3.32 2 4 2 C4.33 3.98 4.66 5.96 5 8 C4.01 7.67 3.02 7.34 2 7 C0.8125 3.4375 0.8125 3.4375 0 0 Z " fill="#60DFC0" transform="translate(461,109)"/>
<path d="M0 0 C2.31 0 4.62 0 7 0 C6.67 0.99 6.34 1.98 6 3 C4.02 3 2.04 3 0 3 C0 2.01 0 1.02 0 0 Z " fill="#5FEAC8" transform="translate(671,84)"/>
<path d="M0 0 C0.33 0 0.66 0 1 0 C1 2.64 1 5.28 1 8 C-0.9375 7.6875 -0.9375 7.6875 -3 7 C-3.33 6.01 -3.66 5.02 -4 4 C-3.01 4.33 -2.02 4.66 -1 5 C-0.67 3.35 -0.34 1.7 0 0 Z " fill="#66CBB3" transform="translate(263,191)"/>
<path d="M0 0 C-1.65 1.32 -3.3 2.64 -5 4 C-5.66 2.68 -6.32 1.36 -7 0 C-3.98968256 -0.93423645 -3.13349732 -1.04449911 0 0 Z " fill="#67EDCD" transform="translate(300,170)"/>
<path d="M0 0 C0.99 0 1.98 0 3 0 C4.0625 1.8125 4.0625 1.8125 5 4 C4.67 4.99 4.34 5.98 4 7 C2 5.1875 2 5.1875 0 3 C0 2.01 0 1.02 0 0 Z " fill="#64E8C7" transform="translate(653,105)"/>
</svg>
